<svg width="646" height="1053" viewBox="0 0 646 1053" fill="none" xmlns="http://www.w3.org/2000/svg">
<g clip-path="url(#clip0_222_2365)">
<path fill-rule="evenodd" clip-rule="evenodd" d="M352.491 0C292.622 0 244.073 48.5898 244.073 108.428V403.561C244.073 408.221 247.869 412.015 252.531 412.015H335.243C344.766 412.015 352.558 404.293 352.558 394.709V140.777C352.558 126.466 364.146 114.818 378.53 114.818H649.575C652.305 114.818 654.57 112.622 654.57 109.826C654.57 49.1888 605.355 0 544.687 0H352.558H352.491ZM183.005 168.799C183.005 166.403 181.074 164.473 178.676 164.473C121.204 164.473 74.5872 211.066 74.5872 268.508V402.03C74.5872 407.488 79.0492 411.948 84.51 411.948H165.757C175.28 411.948 183.072 404.227 183.072 394.642V168.799H183.005ZM654.503 334.937C654.503 325.418 646.778 317.631 637.188 317.631H563.333C553.81 317.631 546.019 325.352 546.019 334.937V717.531C546.019 727.049 553.744 734.837 563.333 734.837H637.188C646.711 734.837 654.503 727.116 654.503 717.531V335.003V334.937ZM814 274.033C814 214.128 765.452 165.671 705.582 165.671H420.885C411.362 165.671 403.57 173.392 403.57 182.977V263.183C403.57 272.702 411.295 280.489 420.885 280.489H679.676C693.994 280.489 705.649 292.071 705.649 306.448V746.685C705.649 760.996 694.061 772.644 679.676 772.644H420.885C411.362 772.644 403.57 780.365 403.57 789.95V870.156C403.57 879.674 411.295 887.462 420.885 887.462H705.582C765.518 887.462 814 838.872 814 779.1V274.1V274.033ZM417.356 489.825C417.356 480.306 409.631 472.519 400.041 472.519H17.3149C7.7917 472.519 0 480.24 0 489.825V563.641C0 573.159 7.72511 580.947 17.3149 580.947H400.041C409.564 580.947 417.356 573.226 417.356 563.641V489.825ZM244.073 944.572C244.073 1004.48 292.622 1052.93 352.491 1052.93H544.62C605.289 1052.93 654.503 1003.74 654.503 943.107C654.503 940.378 652.305 938.115 649.508 938.115H378.464C364.146 938.115 352.491 926.534 352.491 912.156V660.688C352.491 651.169 344.766 643.382 335.176 643.382H252.398C247.736 643.382 244.007 647.109 244.007 651.768V944.439L244.073 944.572ZM74.5207 781.164C74.5207 839.804 122.137 887.396 180.807 887.396C182.073 887.396 183.005 886.397 183.005 885.132V661.42C183.005 651.902 175.28 644.114 165.69 644.114H79.5819C76.8515 644.114 74.6538 646.31 74.6538 649.039V781.164H74.5207Z" fill="#2A2D38"/>
</g>
<defs>
<clipPath id="clip0_222_2365">
<rect width="646" height="1053" fill="white"/>
</clipPath>
</defs>
</svg>
