<svg width="426" height="225" viewBox="0 0 426 225" fill="none" xmlns="http://www.w3.org/2000/svg">
<g clip-path="url(#clip0_229_4723)">
<path d="M11.6146 144.732C10.5599 145.937 9.78788 147.363 9.355 148.905C8.93132 150.479 8.7148 152.102 8.71093 153.733C8.70792 154.813 8.79978 155.891 8.98545 156.955C9.1695 158.002 9.47788 159.023 9.90405 159.997C10.3658 160.96 10.9399 161.864 11.6146 162.691C12.3565 163.53 13.2526 164.219 14.2542 164.72C15.3837 165.377 16.6149 165.841 17.897 166.093C19.469 166.476 21.0834 166.657 22.7012 166.632C24.3006 166.638 25.8965 166.479 27.4631 166.156C28.8066 165.921 30.1202 165.538 31.3804 165.016C32.4982 164.559 33.5815 164.023 34.6219 163.41C35.5827 162.755 36.5119 162.163 37.3883 161.508V171.576C36.3324 172.178 35.1709 172.706 34.0201 173.192C32.8692 173.678 31.7077 174.08 30.504 174.439C29.2474 174.791 27.9662 175.049 26.6712 175.21C25.233 175.408 23.7833 175.51 22.3316 175.516C19.2758 175.537 16.2361 175.073 13.3251 174.143C10.6831 173.323 8.25901 171.92 6.23218 170.036C4.20535 168.153 2.62757 165.838 1.6155 163.262C-0.538663 157.085 -0.538663 150.36 1.6155 144.183C2.63367 141.61 4.21644 139.3 6.24686 137.422C8.27728 135.544 10.7035 134.147 13.3462 133.333C16.2506 132.376 19.2954 131.915 22.3527 131.97C23.8028 131.953 25.2524 132.031 26.6923 132.203C27.9889 132.385 29.2701 132.664 30.5251 133.037C31.7188 133.393 32.8925 133.813 34.0412 134.294C35.1921 134.77 36.3007 135.351 37.4094 135.9V145.915C36.533 145.313 35.6039 144.721 34.643 144.066C33.6004 143.458 32.5173 142.921 31.4015 142.461C30.1246 141.942 28.8027 141.542 27.4526 141.267C25.8908 140.913 24.2914 140.753 22.6906 140.791C20.3818 140.722 18.08 141.08 15.9014 141.848C14.2667 142.461 12.7984 143.448 11.6146 144.732Z" fill="#F4F4F4"/>
<path d="M84.7967 144.32C85.8456 147.344 86.3462 150.532 86.2749 153.733C86.341 156.937 85.8405 160.127 84.7967 163.156C83.8685 165.713 82.3865 168.033 80.4571 169.949C78.5223 171.827 76.1811 173.233 73.6151 174.059C70.7038 175.054 67.6427 175.54 64.5663 175.495C61.4899 175.54 58.4288 175.054 55.5175 174.059C52.9491 173.211 50.5988 171.808 48.6333 169.949C46.691 168.033 45.1917 165.714 44.2409 163.156C43.1822 160.129 42.6675 156.939 42.7204 153.733C42.662 150.53 43.1769 147.342 44.2409 144.32C45.1787 141.752 46.6796 139.428 48.6333 137.516C50.5984 135.645 52.9477 134.225 55.5175 133.354C61.4112 131.523 67.7213 131.523 73.6151 133.354C76.1925 134.205 78.5405 135.637 80.4789 137.538C82.4172 139.439 83.8943 141.759 84.7967 144.32ZM76.9938 158.328C77.3621 156.824 77.5464 155.281 77.5429 153.733C77.5417 152.167 77.3574 150.607 76.9938 149.084C76.6268 147.583 75.9347 146.18 74.9666 144.975C73.9052 143.673 72.5424 142.651 70.9965 141.996C68.9623 141.162 66.7736 140.773 64.5769 140.855C63.0357 140.829 61.498 141.01 60.005 141.394C58.7775 141.673 57.6063 142.158 56.5417 142.83C55.6253 143.423 54.8151 144.166 54.1449 145.028C53.507 145.851 52.9782 146.753 52.5716 147.711C52.1959 148.656 51.9165 149.636 51.7375 150.637C51.5939 151.663 51.5163 152.697 51.5052 153.733C51.5167 154.772 51.5943 155.809 51.7375 156.839C51.9235 157.855 52.2028 158.853 52.5716 159.818C52.9782 160.776 53.507 161.678 54.1449 162.501C54.839 163.316 55.6461 164.028 56.5417 164.614C57.6224 165.252 58.7886 165.732 60.005 166.04C61.498 166.424 63.0357 166.605 64.5769 166.579C66.7705 166.632 68.9528 166.248 70.9965 165.449C72.4923 164.818 73.817 163.84 74.8615 162.597C75.906 161.353 76.6404 159.879 77.0044 158.297L76.9938 158.328Z" fill="#F4F4F4"/>
<path d="M129.534 165.48H134.94V184.433H126.303V174.545H97.4882V184.433H88.8934V165.48H93.5181C94.2149 165.149 94.8646 164.726 95.4504 164.223C96.0529 163.702 96.5821 163.101 97.0236 162.438C97.4135 161.878 97.6963 161.252 97.8577 160.589C98.0192 160.048 98.0975 159.485 98.09 158.92V133.47H98.1956V133.174H129.555L129.534 165.48ZM120.897 165.48V142.239H106.769V158.93C106.808 161.185 106.365 163.421 105.471 165.491L120.897 165.48Z" fill="#F4F4F4"/>
<path d="M149.637 165.713H173.521V174.545H140.789V133.174H173.162V141.996H149.637V148.852H171.948V157.673H149.637V165.713Z" fill="#F4F4F4"/>
<path d="M209.473 133.174H218.902V174.545H210.213V146.105L188.599 174.545H179.276V133.174H187.86V161.698L209.473 133.174ZM206.887 127.153H191.228L189.993 119.451H205.651L206.887 127.153Z" fill="#F4F4F4"/>
<path d="M236.06 144.732C235.004 145.938 234.229 147.363 233.79 148.905C233.366 150.479 233.15 152.102 233.146 153.733C233.151 154.795 233.243 155.855 233.421 156.902C233.763 159.015 234.676 160.995 236.06 162.628C236.802 163.463 237.694 164.151 238.689 164.656C239.824 165.307 241.059 165.768 242.343 166.019C243.915 166.402 245.529 166.583 247.147 166.558C248.743 166.565 250.335 166.406 251.898 166.082C253.244 165.845 254.56 165.466 255.826 164.952C256.941 164.492 258.02 163.952 259.057 163.336C260.028 162.681 260.947 162.089 261.823 161.434V171.502C260.731 172.102 259.607 172.642 258.455 173.118C257.304 173.594 256.143 174.006 254.95 174.365C253.693 174.721 252.412 174.982 251.117 175.147C249.678 175.341 248.229 175.44 246.777 175.443C243.721 175.469 240.68 175.005 237.771 174.069C235.126 173.26 232.698 171.864 230.667 169.985C228.636 168.107 227.054 165.794 226.04 163.22C223.872 157.045 223.872 150.315 226.04 144.14C227.052 141.566 228.633 139.253 230.665 137.376C232.696 135.499 235.125 134.106 237.771 133.301C240.673 132.335 243.719 131.87 246.777 131.928C248.227 131.911 249.677 131.988 251.117 132.16C252.413 132.342 253.695 132.621 254.95 132.995C256.143 133.354 257.304 133.777 258.455 134.252C259.605 134.729 260.729 135.265 261.823 135.858V145.873L259.057 144.024C258.018 143.415 256.938 142.879 255.826 142.418C254.554 141.907 253.24 141.507 251.898 141.225C250.34 140.87 248.744 140.71 247.147 140.749C244.838 140.677 242.536 141.036 240.358 141.806C238.713 142.426 237.24 143.429 236.06 144.732Z" fill="#F4F4F4"/>
<path d="M266.416 133.174H302.252V142.175H288.632V174.545H279.995V142.175H266.416V133.174Z" fill="#F4F4F4"/>
<path d="M343.041 159.036C343.375 160.383 343.527 161.769 343.495 163.156C343.52 164.561 343.368 165.963 343.041 167.329C342.762 168.419 342.29 169.449 341.647 170.372C341.099 171.216 340.379 171.936 339.535 172.485C338.689 173.033 337.768 173.457 336.8 173.742C335.767 174.057 334.707 174.277 333.633 174.397C332.482 174.517 331.326 174.577 330.17 174.576H306.941V133.174H329.758C330.669 133.173 331.579 133.233 332.482 133.354C334.261 133.461 335.981 134.037 337.466 135.023C338.221 135.518 338.865 136.166 339.356 136.925C339.938 137.781 340.377 138.727 340.654 139.724C340.946 141.017 341.084 142.34 341.066 143.665C341.178 145.88 340.65 148.081 339.546 150.004C338.406 151.652 336.666 152.79 334.699 153.173C336.076 153.247 337.432 153.546 338.712 154.06C339.743 154.512 340.659 155.191 341.39 156.047C342.122 156.904 342.65 157.915 342.935 159.004L343.041 159.036ZM315.704 141.457V149.264H328.375C329.09 149.277 329.802 149.177 330.486 148.968C330.987 148.788 331.444 148.503 331.827 148.134C332.142 147.79 332.379 147.383 332.524 146.94C332.626 146.449 332.686 145.951 332.704 145.45C332.689 144.949 332.629 144.451 332.524 143.961C332.391 143.494 332.153 143.064 331.827 142.704C331.448 142.317 330.991 142.014 330.486 141.816C329.814 141.553 329.096 141.431 328.375 141.457H315.704ZM334.404 164.107C334.663 163.382 334.788 162.616 334.773 161.846C334.8 161.072 334.674 160.3 334.404 159.575C334.181 159.003 333.777 158.52 333.253 158.201C332.591 157.877 331.875 157.676 331.141 157.61C330.147 157.482 329.145 157.422 328.142 157.43H315.704V166.199H328.174C329.175 166.227 330.177 166.185 331.173 166.072C331.917 166.018 332.64 165.794 333.284 165.417C333.765 165.099 334.137 164.642 334.351 164.107H334.404Z" fill="#F4F4F4"/>
<path d="M378.697 133.174H388.126V174.545H379.436V146.105L357.823 174.545H348.499V133.174H357.084V161.698L378.697 133.174Z" fill="#F4F4F4"/>
<path d="M402.116 165.713H426V174.545H393.268V133.174H425.683V141.996H402.116V148.852H424.458V157.673H402.116V165.713Z" fill="#F4F4F4"/>
<path fill-rule="evenodd" clip-rule="evenodd" d="M208.143 0C205.583 0.00559817 203.129 1.02794 201.321 2.84242C199.514 4.6569 198.5 7.1151 198.503 9.67696V36.0034C198.503 36.2023 198.582 36.3931 198.723 36.5338C198.863 36.6744 199.054 36.7535 199.253 36.7535H206.644C206.846 36.7548 207.046 36.7163 207.233 36.6399C207.42 36.5635 207.59 36.4509 207.733 36.3085C207.876 36.1662 207.99 35.9968 208.068 35.8103C208.145 35.6237 208.185 35.4237 208.185 35.2216V12.561C208.185 11.9474 208.429 11.359 208.863 10.9251C209.296 10.4912 209.884 10.2474 210.498 10.2474H234.614C234.673 10.2475 234.731 10.2356 234.786 10.2127C234.84 10.1897 234.89 10.1561 234.931 10.1138C234.972 10.0714 235.005 10.0213 235.026 9.96622C235.048 9.91116 235.059 9.85232 235.057 9.79317C235.057 8.50712 234.804 7.23365 234.312 6.04549C233.82 4.85733 233.099 3.77773 232.19 2.86835C231.281 1.95897 230.202 1.23761 229.015 0.745461C227.827 0.253308 226.555 0 225.269 0L208.143 0ZM193.034 15.0648C193.035 15.0131 193.026 14.9616 193.007 14.9135C192.988 14.8654 192.959 14.8217 192.922 14.7852C192.886 14.7486 192.842 14.7198 192.794 14.7007C192.746 14.6816 192.695 14.6725 192.643 14.6739C190.183 14.6767 187.825 15.6563 186.087 17.3975C184.349 19.1387 183.372 21.499 183.372 23.96V35.9189C183.372 36.034 183.395 36.148 183.439 36.2544C183.483 36.3608 183.548 36.4575 183.629 36.5389C183.71 36.6203 183.807 36.6849 183.913 36.729C184.02 36.773 184.134 36.7957 184.249 36.7957H191.492C191.694 36.7971 191.894 36.7585 192.081 36.6822C192.268 36.6058 192.438 36.4932 192.581 36.3508C192.725 36.2084 192.838 36.0391 192.916 35.8525C192.994 35.666 193.034 35.4659 193.034 35.2639V15.0648ZM235.057 29.8549C235.057 29.4458 234.895 29.0535 234.606 28.7643C234.316 28.475 233.924 28.3125 233.516 28.3125H226.937C226.735 28.3125 226.535 28.3524 226.348 28.4299C226.161 28.5074 225.991 28.6211 225.847 28.7643C225.704 28.9075 225.591 29.0775 225.513 29.2647C225.436 29.4518 225.396 29.6524 225.396 29.8549V64.0201C225.396 64.2226 225.436 64.4232 225.513 64.6104C225.591 64.7975 225.704 64.9675 225.847 65.1107C225.991 65.254 226.161 65.3676 226.348 65.4451C226.535 65.5226 226.735 65.5625 226.937 65.5625H233.516C233.924 65.5625 234.316 65.4 234.606 65.1107C234.895 64.8215 235.057 64.4292 235.057 64.0201V29.8549ZM249.269 24.4248C249.261 21.8666 248.239 19.4161 246.428 17.6101C244.617 15.8042 242.165 14.7901 239.608 14.7901H214.267C213.858 14.7901 213.466 14.9526 213.177 15.2419C212.888 15.5311 212.726 15.9235 212.726 16.3325V23.4846C212.726 23.6872 212.765 23.8877 212.843 24.0749C212.92 24.262 213.034 24.432 213.177 24.5752C213.32 24.7185 213.49 24.8321 213.677 24.9096C213.864 24.9871 214.065 25.027 214.267 25.027H237.327C237.941 25.027 238.531 25.2704 238.966 25.704C239.401 26.1376 239.647 26.726 239.65 27.3406V66.6189C239.65 66.9237 239.59 67.2254 239.473 67.5068C239.356 67.7881 239.185 68.0437 238.969 68.2586C238.753 68.4736 238.497 68.6438 238.215 68.7595C237.934 68.8751 237.632 68.9339 237.327 68.9325H214.235C213.827 68.9325 213.434 69.095 213.145 69.3843C212.856 69.6735 212.694 70.0659 212.694 70.4749V77.6376C212.694 77.8396 212.734 78.0397 212.811 78.2262C212.889 78.4128 213.003 78.5821 213.146 78.7245C213.289 78.8669 213.459 78.9795 213.646 79.0559C213.833 79.1322 214.033 79.1708 214.235 79.1694H239.576C240.845 79.1694 242.101 78.9194 243.273 78.4336C244.446 77.9478 245.511 77.2358 246.408 76.3382C247.305 75.4406 248.016 74.375 248.502 73.2022C248.988 72.0294 249.237 70.7724 249.237 69.503V24.4565L249.269 24.4248ZM213.919 43.7048C213.919 43.5028 213.879 43.3027 213.801 43.1161C213.724 42.9296 213.61 42.7603 213.466 42.6179C213.323 42.4755 213.153 42.3629 212.966 42.2865C212.779 42.2102 212.579 42.1716 212.377 42.173H178.262C177.855 42.173 177.464 42.334 177.176 42.621C176.887 42.908 176.723 43.2976 176.72 43.7048V50.297C176.72 50.706 176.883 51.0984 177.172 51.3876C177.461 51.6769 177.853 51.8394 178.262 51.8394H212.377C212.786 51.8394 213.178 51.6769 213.467 51.3876C213.756 51.0984 213.919 50.706 213.919 50.297V43.7048ZM198.503 84.2826C198.503 85.552 198.753 86.809 199.238 87.9817C199.724 89.1545 200.436 90.2201 201.333 91.1177C202.23 92.0154 203.295 92.7274 204.467 93.2132C205.639 93.6989 206.895 93.949 208.164 93.949H225.29C226.576 93.949 227.848 93.6957 229.036 93.2035C230.224 92.7113 231.303 91.99 232.211 91.0806C233.12 90.1712 233.841 89.0916 234.333 87.9035C234.825 86.7153 235.078 85.4419 235.078 84.1558C235.08 84.0966 235.069 84.0378 235.048 83.9827C235.026 83.9277 234.993 83.8775 234.952 83.8352C234.911 83.7929 234.861 83.7592 234.807 83.7363C234.752 83.7133 234.694 83.7015 234.635 83.7015H210.455C210.148 83.703 209.843 83.6428 209.559 83.5244C209.275 83.406 209.018 83.2318 208.802 83.0122C208.586 82.7926 208.417 82.5319 208.304 82.2457C208.191 81.9594 208.136 81.6534 208.143 81.3457V58.9598C208.143 58.5507 207.981 58.1584 207.692 57.8691C207.402 57.5799 207.01 57.4174 206.601 57.4174H199.21C199.014 57.4174 198.826 57.4953 198.688 57.634C198.549 57.7726 198.471 57.9607 198.471 58.1569V84.272L198.503 84.2826ZM183.372 69.7249C183.372 72.2465 184.374 74.6649 186.156 76.448C187.938 78.2311 190.355 79.2328 192.875 79.2328C192.926 79.2328 192.974 79.2128 193.01 79.1771C193.045 79.1414 193.065 79.0931 193.065 79.0426V59.0126C193.065 58.6053 192.904 58.2146 192.618 57.9257C192.331 57.6367 191.941 57.473 191.534 57.4702H183.848C183.73 57.4702 183.617 57.5169 183.534 57.6001C183.451 57.6834 183.404 57.7962 183.404 57.9139V69.7249H183.372Z" fill="#F4F4F4"/>
<path d="M56.51 206.058C55.3226 205.421 53.9926 205.098 52.6455 205.118C51.2965 205.092 49.9643 205.42 48.781 206.069C47.6768 206.688 46.7554 207.588 46.1097 208.678C45.4402 209.832 45.1005 211.147 45.1277 212.481C45.1064 213.814 45.4457 215.128 46.1097 216.284C46.7462 217.39 47.6739 218.3 48.7916 218.915C49.9802 219.546 51.3053 219.876 52.6508 219.876C53.9963 219.876 55.3213 219.546 56.51 218.915C57.6218 218.301 58.5453 217.395 59.1813 216.295C59.8116 215.121 60.1415 213.809 60.1415 212.476C60.1415 211.143 59.8116 209.831 59.1813 208.657C58.5444 207.563 57.6206 206.664 56.51 206.058ZM56.8795 215.165C56.4824 215.911 55.882 216.53 55.1479 216.95C54.3844 217.379 53.521 217.598 52.6455 217.584C51.7768 217.597 50.9201 217.379 50.1642 216.95C49.434 216.522 48.8323 215.905 48.422 215.165C47.9749 214.342 47.7494 213.417 47.7674 212.481C47.7439 211.544 47.9698 210.618 48.422 209.798C48.8389 209.068 49.4395 208.459 50.1642 208.034C50.9228 207.613 51.7782 207.398 52.6455 207.41C53.5195 207.398 54.3816 207.613 55.1479 208.034C55.8764 208.451 56.4756 209.062 56.8795 209.798C57.3112 210.625 57.5255 211.548 57.5025 212.481C57.5205 213.414 57.3065 214.336 56.8795 215.165Z" fill="#F4F4F4"/>
<path d="M75.5473 205.255H72.6859L68.7158 210.463L64.7563 205.255H61.8316L67.2482 212.323L61.5676 219.707H64.4818L68.6947 214.161L72.876 219.707H75.8535L70.099 212.312L75.5473 205.255Z" fill="#F4F4F4"/>
<path d="M90.435 206.005C89.2868 205.367 87.9894 205.046 86.6761 205.076C85.5095 205.059 84.3578 205.339 83.329 205.889C82.6189 206.293 82.0034 206.844 81.5235 207.505V205.213H79.0105V225.021H81.629V217.52C82.1168 218.141 82.7235 218.658 83.4135 219.042C84.4215 219.599 85.5562 219.886 86.7078 219.876C88.0203 219.899 89.316 219.579 90.4667 218.947C91.5478 218.335 92.442 217.44 93.0535 216.358C93.7054 215.172 94.0331 213.835 94.0038 212.481C94.0349 211.134 93.7069 209.803 93.0535 208.625C92.4393 207.527 91.5329 206.62 90.435 206.005ZM90.6884 215.122C90.2903 215.872 89.6857 216.492 88.9462 216.908C88.1853 217.324 87.3321 217.542 86.4649 217.542C85.5978 217.542 84.7445 217.324 83.9836 216.908C83.2463 216.489 82.6424 215.87 82.2414 215.122C81.798 214.299 81.5761 213.374 81.5974 212.439C81.5706 211.503 81.7929 210.577 82.2414 209.756C82.6492 209.019 83.2519 208.408 83.9836 207.991C84.7475 207.584 85.5996 207.372 86.4649 207.372C87.3303 207.372 88.1824 207.584 88.9462 207.991C89.6803 208.405 90.2838 209.016 90.6884 209.756C91.1369 210.577 91.3592 211.503 91.3325 212.439C91.3612 213.388 91.139 214.329 90.6884 215.165V215.122Z" fill="#F4F4F4"/>
<path d="M103.19 205.118C102.078 205.113 100.971 205.274 99.9061 205.593C98.9327 205.876 98.0223 206.342 97.2242 206.967L98.28 208.932C98.9102 208.431 99.6256 208.048 100.392 207.801C101.201 207.525 102.05 207.382 102.905 207.379C103.955 207.298 104.996 207.627 105.808 208.298C106.141 208.635 106.399 209.039 106.565 209.484C106.73 209.928 106.8 210.402 106.769 210.875V211.393H102.62C101.452 211.344 100.287 211.539 99.1986 211.964C98.4418 212.266 97.8016 212.803 97.372 213.495C96.9997 214.137 96.8064 214.867 96.8124 215.608C96.8035 216.39 97.0318 217.156 97.467 217.806C97.9307 218.48 98.5799 219.004 99.3359 219.316C100.225 219.702 101.187 219.889 102.155 219.866C103.3 219.908 104.436 219.649 105.449 219.116C106.029 218.792 106.525 218.336 106.896 217.785V219.739H109.377V211.013C109.442 210.205 109.332 209.392 109.055 208.63C108.778 207.868 108.341 207.175 107.772 206.597C106.483 205.548 104.848 205.02 103.19 205.118ZM105.164 217.203C104.381 217.652 103.49 217.878 102.588 217.858C101.758 217.902 100.936 217.676 100.244 217.214C99.9764 217.02 99.7599 216.764 99.6128 216.467C99.4657 216.171 99.3924 215.844 99.3993 215.513C99.3956 215.216 99.4549 214.921 99.5732 214.648C99.6915 214.374 99.8661 214.129 100.086 213.929C100.859 213.401 101.795 213.169 102.725 213.274H106.759V215.291C106.46 216.092 105.898 216.766 105.164 217.203Z" fill="#F4F4F4"/>
<path d="M125.353 211.393H117.117V205.255H114.509V219.707H117.117V213.654H125.353V219.707H127.971V205.255H125.353V211.393Z" fill="#F4F4F4"/>
<path d="M144.326 211.393H136.101V205.255H133.483V219.707H136.101V213.654H144.326V219.707H146.945V205.255H144.326V211.393Z" fill="#F4F4F4"/>
<path d="M157.609 205.118C156.497 205.112 155.39 205.272 154.325 205.593C153.35 205.878 152.436 206.344 151.633 206.967L152.689 208.932C153.318 208.428 154.033 208.045 154.801 207.801C155.606 207.524 156.451 207.382 157.303 207.379C158.353 207.298 159.394 207.627 160.207 208.298C160.541 208.635 160.8 209.039 160.968 209.483C161.135 209.927 161.207 210.402 161.178 210.875V211.393H157.028C155.861 211.344 154.696 211.539 153.607 211.964C152.852 212.269 152.213 212.805 151.781 213.495C151.409 214.137 151.215 214.867 151.221 215.608C151.212 216.39 151.441 217.156 151.876 217.806C152.346 218.474 152.993 218.997 153.745 219.316C154.638 219.701 155.603 219.888 156.574 219.866C157.719 219.905 158.854 219.647 159.869 219.116C160.445 218.787 160.939 218.332 161.315 217.785V219.739H163.797V211.013C163.862 210.204 163.751 209.39 163.473 208.628C163.194 207.865 162.753 207.173 162.181 206.597C160.896 205.548 159.265 205.021 157.609 205.118ZM159.584 217.203C158.8 217.651 157.909 217.877 157.007 217.858C156.177 217.905 155.354 217.678 154.663 217.214C154.394 217.022 154.176 216.766 154.028 216.469C153.881 216.173 153.809 215.844 153.819 215.513C153.814 215.216 153.871 214.922 153.988 214.649C154.104 214.376 154.277 214.13 154.494 213.929C155.272 213.401 156.211 213.169 157.145 213.274H161.178V215.291C160.88 216.092 160.317 216.766 159.584 217.203Z" fill="#F4F4F4"/>
<path d="M169.562 206.533C168.982 206.973 168.521 207.55 168.219 208.212C167.917 208.874 167.783 209.6 167.83 210.326C167.791 211.008 167.918 211.688 168.199 212.31C168.48 212.932 168.908 213.476 169.445 213.897C169.976 214.288 170.574 214.578 171.209 214.753L167.693 219.739H170.501L173.669 215.143H178.156V219.739H180.553V205.255H174.218C172.568 205.161 170.933 205.61 169.562 206.533ZM178.156 207.59V213.284H174.155C171.712 213.284 170.494 212.34 170.501 210.453C170.462 210.033 170.532 209.61 170.704 209.225C170.876 208.84 171.145 208.506 171.483 208.255C172.323 207.764 173.289 207.533 174.26 207.59H178.156Z" fill="#F4F4F4"/>
<path d="M203.782 206.058C202.595 205.421 201.265 205.098 199.918 205.118C198.569 205.092 197.237 205.42 196.053 206.069C194.949 206.688 194.028 207.588 193.382 208.678C192.713 209.832 192.373 211.147 192.4 212.481C192.379 213.814 192.718 215.128 193.382 216.284C194.019 217.39 194.946 218.3 196.064 218.915C197.253 219.546 198.578 219.876 199.923 219.876C201.269 219.876 202.594 219.546 203.782 218.915C204.894 218.301 205.818 217.395 206.454 216.295C207.084 215.121 207.414 213.809 207.414 212.476C207.414 211.143 207.084 209.831 206.454 208.657C205.817 207.563 204.893 206.664 203.782 206.058ZM204.141 215.165C203.751 215.913 203.154 216.533 202.42 216.95C201.657 217.379 200.793 217.598 199.918 217.584C199.049 217.599 198.192 217.38 197.437 216.95C196.704 216.525 196.102 215.907 195.694 215.165C195.247 214.342 195.022 213.417 195.04 212.481C195.016 211.544 195.242 210.618 195.694 209.798C196.108 209.065 196.709 208.456 197.437 208.034C198.195 207.612 199.05 207.397 199.918 207.41C200.792 207.398 201.654 207.613 202.42 208.034C203.148 208.448 203.745 209.06 204.141 209.798C204.582 210.622 204.8 211.547 204.775 212.481C204.801 213.413 204.59 214.336 204.162 215.165H204.141Z" fill="#F4F4F4"/>
<path d="M223.062 206.005C221.91 205.369 220.609 205.048 219.293 205.076C218.13 205.06 216.982 205.34 215.956 205.889C215.241 206.29 214.621 206.841 214.14 207.505V205.213H211.638V225.021H214.256V217.52C214.73 218.148 215.327 218.673 216.009 219.063C217.014 219.619 218.145 219.906 219.293 219.897C220.609 219.92 221.908 219.6 223.062 218.968C224.144 218.356 225.038 217.461 225.649 216.38C226.301 215.193 226.629 213.856 226.6 212.502C226.631 211.155 226.303 209.824 225.649 208.646C225.047 207.544 224.152 206.63 223.062 206.005ZM223.316 215.122C222.918 215.872 222.313 216.492 221.574 216.908C220.813 217.324 219.959 217.542 219.092 217.542C218.225 217.542 217.372 217.324 216.611 216.908C215.872 216.492 215.267 215.872 214.869 215.122C214.425 214.299 214.204 213.374 214.225 212.439C214.198 211.503 214.42 210.577 214.869 209.756C215.273 209.016 215.877 208.405 216.611 207.991C217.375 207.584 218.227 207.372 219.092 207.372C219.958 207.372 220.81 207.584 221.574 207.991C222.308 208.405 222.911 209.016 223.316 209.756C223.764 210.577 223.987 211.503 223.96 212.439C223.989 213.388 223.766 214.329 223.316 215.165V215.122Z" fill="#F4F4F4"/>
<path d="M230.802 219.707H233.42V207.548H241.434V205.255H230.802V219.707Z" fill="#F4F4F4"/>
<path d="M249.67 205.118C248.558 205.112 247.451 205.272 246.386 205.593C245.41 205.876 244.496 206.342 243.694 206.967L244.75 208.932C245.381 208.432 246.096 208.049 246.862 207.801C247.667 207.524 248.512 207.382 249.364 207.379C250.414 207.298 251.455 207.627 252.268 208.298C252.602 208.635 252.861 209.039 253.029 209.483C253.196 209.927 253.268 210.402 253.239 210.875V211.393H249.089C247.922 211.344 246.757 211.539 245.668 211.964C244.914 212.269 244.274 212.805 243.842 213.495C243.47 214.137 243.276 214.867 243.282 215.608C243.273 216.39 243.502 217.156 243.937 217.806C244.407 218.474 245.054 218.997 245.806 219.316C246.695 219.7 247.657 219.887 248.625 219.866C249.773 219.907 250.912 219.648 251.93 219.116C252.506 218.787 253.001 218.332 253.376 217.785V219.739H255.858V211.013C255.923 210.204 255.813 209.39 255.534 208.628C255.255 207.865 254.814 207.173 254.242 206.597C252.957 205.548 251.326 205.021 249.67 205.118ZM251.645 217.203C250.861 217.651 249.971 217.877 249.068 217.858C248.238 217.905 247.415 217.678 246.724 217.214C246.455 217.022 246.237 216.766 246.089 216.469C245.942 216.173 245.87 215.844 245.88 215.513C245.875 215.216 245.932 214.922 246.049 214.649C246.165 214.376 246.338 214.13 246.555 213.929C247.333 213.401 248.272 213.169 249.206 213.274H253.239V215.291C252.937 216.09 252.376 216.763 251.645 217.203Z" fill="#F4F4F4"/>
<path d="M271.833 211.393H263.597V205.255H260.979V219.707H263.597V213.654H271.833V219.707H274.451V205.255H271.833V211.393Z" fill="#F4F4F4"/>
<path d="M282.571 215.777V205.255H279.953V219.707H282.349L291.187 209.175V219.707H293.805V205.255H291.43L282.571 215.777Z" fill="#F4F4F4"/>
<path d="M308.493 212.893C307.99 212.552 307.428 212.308 306.835 212.175L307.078 212.101C307.756 211.832 308.355 211.396 308.82 210.833C309.251 210.319 309.484 209.666 309.475 208.995C309.48 208.205 309.172 207.446 308.619 206.882C307.97 206.235 307.167 205.762 306.286 205.509C305.203 205.175 304.07 205.032 302.939 205.086C302.085 205.1 301.237 205.225 300.415 205.456C299.528 205.696 298.666 206.017 297.839 206.417L298.546 208.467C299.281 208.102 300.052 207.819 300.848 207.622C301.578 207.444 302.325 207.341 303.076 207.315C303.733 207.304 304.387 207.389 305.019 207.569C305.507 207.685 305.955 207.93 306.317 208.277C306.467 208.421 306.586 208.596 306.666 208.788C306.746 208.981 306.785 209.188 306.782 209.396C306.787 209.787 306.643 210.164 306.381 210.453C306.096 210.766 305.731 210.997 305.325 211.118C304.783 211.275 304.221 211.35 303.657 211.34H301.207V213.221H303.826C304.694 213.173 305.559 213.363 306.328 213.77C306.607 213.92 306.839 214.144 306.998 214.419C307.157 214.693 307.235 215.006 307.226 215.323C307.233 215.783 307.058 216.227 306.74 216.559C306.353 216.955 305.868 217.243 305.336 217.394C304.635 217.609 303.904 217.713 303.171 217.7C302.258 217.698 301.348 217.574 300.468 217.33C299.633 217.093 298.837 216.737 298.103 216.274L297.311 218.26C298.169 218.812 299.11 219.222 300.098 219.475C301.131 219.755 302.196 219.897 303.266 219.897C304.421 219.92 305.569 219.73 306.655 219.337C307.558 219.026 308.368 218.492 309.01 217.784C309.58 217.154 309.893 216.332 309.886 215.481C309.898 214.966 309.775 214.457 309.531 214.003C309.286 213.55 308.929 213.167 308.493 212.893Z" fill="#F4F4F4"/>
<path d="M319.431 205.118C318.319 205.112 317.212 205.272 316.148 205.593C315.172 205.878 314.259 206.344 313.455 206.967L314.511 208.932C315.142 208.432 315.857 208.049 316.623 207.801C317.428 207.524 318.273 207.382 319.125 207.379C320.175 207.298 321.216 207.627 322.029 208.298C322.363 208.635 322.622 209.039 322.79 209.483C322.957 209.927 323.029 210.402 323 210.875V211.393H318.872C317.704 211.344 316.539 211.539 315.451 211.964C314.696 212.269 314.056 212.805 313.624 213.495C313.252 214.137 313.059 214.867 313.064 215.608C313.056 216.39 313.284 217.156 313.719 217.806C314.189 218.474 314.837 218.997 315.588 219.316C316.477 219.7 317.439 219.887 318.407 219.866C319.555 219.907 320.694 219.648 321.712 219.116C322.288 218.787 322.783 218.332 323.159 217.785V219.739H325.64V211.013C325.705 210.204 325.595 209.39 325.316 208.628C325.037 207.865 324.596 207.173 324.024 206.597C322.734 205.543 321.094 205.015 319.431 205.118ZM321.406 217.204C320.622 217.651 319.732 217.877 318.829 217.859C317.999 217.905 317.176 217.678 316.485 217.214C316.216 217.022 315.998 216.766 315.851 216.469C315.703 216.173 315.631 215.844 315.641 215.513C315.636 215.216 315.693 214.922 315.81 214.649C315.926 214.376 316.099 214.13 316.317 213.929C317.094 213.401 318.034 213.169 318.967 213.274H323V215.291C322.702 216.092 322.139 216.766 321.406 217.204Z" fill="#F4F4F4"/>
<path d="M343.885 205.255H341.267V217.415H333.358V205.255H330.74V219.707H341.267H343.685V223.067H346.166V217.415H343.885V205.255Z" fill="#F4F4F4"/>
<path d="M352.575 215.777V205.255H349.957V219.707H352.353L361.191 209.175V219.707H363.81V205.255H361.434L352.575 215.777Z" fill="#F4F4F4"/>
<path d="M374.548 205.255C372.909 205.172 371.287 205.62 369.923 206.533C369.347 206.976 368.889 207.553 368.589 208.215C368.289 208.876 368.156 209.601 368.202 210.326C368.163 211.008 368.289 211.688 368.571 212.31C368.852 212.932 369.28 213.476 369.817 213.897C370.345 214.286 370.939 214.576 371.57 214.753L368.065 219.739H370.873L374.041 215.143H378.528V219.739H380.872V205.255H374.548ZM370.873 210.411C370.834 209.991 370.904 209.568 371.076 209.183C371.248 208.798 371.516 208.464 371.855 208.213C372.694 207.719 373.661 207.487 374.632 207.548H378.528V213.242H374.526C372.091 213.242 370.873 212.298 370.873 210.411Z" fill="#F4F4F4"/>
</g>
<defs>
<clipPath id="clip0_229_4723">
<rect width="426" height="225" fill="white"/>
</clipPath>
</defs>
</svg>
