<svg width="282" height="149" viewBox="0 0 282 149" fill="none" xmlns="http://www.w3.org/2000/svg">
<path d="M7.68859 95.8447C6.99043 96.6427 6.47938 97.5868 6.19283 98.6081C5.91236 99.6507 5.76903 100.725 5.76647 101.805C5.76448 102.52 5.82529 103.234 5.9482 103.939C6.07003 104.632 6.27417 105.309 6.55629 105.954C6.86193 106.591 7.24202 107.19 7.68859 107.738C8.17974 108.293 8.77295 108.749 9.43598 109.081C10.1837 109.516 10.9986 109.824 11.8474 109.99C12.888 110.244 13.9567 110.364 15.0276 110.347C16.0864 110.352 17.1428 110.246 18.1799 110.032C19.0693 109.876 19.9388 109.623 20.773 109.277C21.513 108.975 22.2301 108.619 22.9188 108.214C23.5548 107.78 24.1699 107.388 24.7501 106.954V113.621C24.0511 114.02 23.2823 114.37 22.5204 114.692C21.7585 115.014 20.9897 115.279 20.1929 115.517C19.361 115.751 18.5129 115.921 17.6557 116.028C16.7036 116.159 15.744 116.227 14.783 116.231C12.7601 116.244 10.7479 115.937 8.8209 115.321C7.07196 114.778 5.46731 113.849 4.12561 112.602C2.7839 111.354 1.73946 109.821 1.0695 108.116C-0.356499 104.025 -0.356499 99.5715 1.0695 95.4809C1.7435 93.7775 2.79124 92.2476 4.13533 91.004C5.47941 89.7604 7.08548 88.8349 8.83488 88.296C10.7575 87.6623 12.7731 87.3572 14.797 87.3935C15.7568 87.3823 16.7165 87.4337 17.6697 87.5474C18.528 87.6681 19.3761 87.8528 20.2069 88.1001C20.997 88.3358 21.774 88.6137 22.5344 88.9326C23.2962 89.2475 24.0301 89.6322 24.764 89.996V96.6282C24.1839 96.2294 23.5688 95.8377 22.9328 95.4039C22.2426 95.0009 21.5257 94.6456 20.787 94.3405C19.9417 93.9972 19.0667 93.7326 18.1729 93.55C17.1391 93.3156 16.0803 93.2099 15.0206 93.2352C13.4922 93.189 11.9685 93.4262 10.5263 93.9348C9.44422 94.3405 8.47226 94.9947 7.68859 95.8447Z" fill="#F4F4F4"/>
<path d="M56.1329 95.5716C56.8272 97.5745 57.1586 99.6855 57.1114 101.805C57.1551 103.927 56.8239 106.039 56.1329 108.045C55.5184 109.739 54.5374 111.275 53.2602 112.544C51.9794 113.787 50.4296 114.719 48.731 115.265C46.8038 115.925 44.7774 116.246 42.7409 116.217C40.7045 116.246 38.6781 115.925 36.7509 115.265C35.0507 114.704 33.4948 113.775 32.1937 112.544C30.908 111.275 29.9155 109.739 29.2861 108.045C28.5853 106.041 28.2445 103.928 28.2796 101.805C28.2409 99.6838 28.5818 97.5727 29.2861 95.5716C29.9069 93.8713 30.9004 92.3317 32.1937 91.0662C33.4946 89.8269 35.0498 88.8862 36.7509 88.3098C40.6524 87.0973 44.8295 87.0973 48.731 88.3098C50.4371 88.8736 51.9915 89.8213 53.2746 91.0802C54.5577 92.339 55.5355 93.8755 56.1329 95.5716ZM50.9676 104.848C51.2114 103.852 51.3334 102.83 51.3311 101.805C51.3303 100.768 51.2083 99.7352 50.9676 98.7268C50.7246 97.7323 50.2665 96.8033 49.6256 96.0054C48.923 95.1435 48.0209 94.4663 46.9976 94.0325C45.651 93.4805 44.2021 93.2228 42.7479 93.2769C41.7277 93.2599 40.7098 93.3799 39.7214 93.6337C38.9089 93.8184 38.1336 94.1402 37.4289 94.5852C36.8223 94.9778 36.2859 95.4697 35.8423 96.0403C35.42 96.5852 35.07 97.1825 34.8008 97.8173C34.5521 98.443 34.3671 99.0923 34.2486 99.7552C34.1536 100.434 34.1022 101.119 34.0949 101.805C34.1024 102.493 34.1538 103.18 34.2486 103.862C34.3718 104.535 34.5566 105.195 34.8008 105.835C35.07 106.469 35.42 107.067 35.8423 107.612C36.3017 108.151 36.836 108.623 37.4289 109.011C38.1443 109.433 38.9163 109.751 39.7214 109.955C40.7098 110.209 41.7277 110.329 42.7479 110.312C44.2001 110.347 45.6447 110.093 46.9976 109.564C47.9877 109.146 48.8646 108.498 49.5561 107.675C50.2475 106.851 50.7337 105.875 50.9746 104.827L50.9676 104.848Z" fill="#F4F4F4"/>
<path d="M85.7477 109.585H89.3264V122.136H83.6089V115.588H64.5345V122.136H58.845V109.585H61.9064C62.3676 109.365 62.7977 109.085 63.1855 108.753C63.5843 108.407 63.9347 108.01 64.2269 107.57C64.485 107.2 64.6722 106.785 64.7791 106.346C64.886 105.987 64.9378 105.615 64.9329 105.241V88.3873H65.0028V88.1914H85.7617L85.7477 109.585ZM80.0303 109.585V94.1939H70.6783V105.248C70.7037 106.74 70.4106 108.222 69.8185 109.592L80.0303 109.585Z" fill="#F4F4F4"/>
<path d="M99.0557 109.739H114.866V115.588H93.1985V88.1914H114.628V94.033H99.0557V98.5734H113.825V104.415H99.0557V109.739Z" fill="#F4F4F4"/>
<path d="M138.665 88.1913H144.907V115.587H139.155V96.7543L124.847 115.587H118.675V88.1913H124.358V107.08L138.665 88.1913ZM136.953 84.2036H126.587L125.77 79.1035H136.135L136.953 84.2036Z" fill="#F4F4F4"/>
<path d="M156.265 95.8446C155.566 96.6431 155.053 97.5869 154.762 98.608C154.482 99.6506 154.339 100.725 154.336 101.805C154.339 102.509 154.4 103.21 154.518 103.904C154.745 105.303 155.349 106.614 156.265 107.696C156.756 108.249 157.346 108.704 158.005 109.039C158.757 109.47 159.574 109.775 160.424 109.941C161.465 110.195 162.533 110.315 163.604 110.298C164.661 110.303 165.715 110.197 166.749 109.983C167.64 109.826 168.512 109.575 169.349 109.235C170.087 108.93 170.802 108.573 171.488 108.164C172.131 107.731 172.739 107.339 173.32 106.905V113.572C172.597 113.97 171.852 114.327 171.09 114.643C170.328 114.958 169.559 115.23 168.769 115.468C167.938 115.704 167.09 115.877 166.232 115.986C165.28 116.114 164.32 116.18 163.359 116.182C161.336 116.199 159.323 115.892 157.397 115.272C155.647 114.736 154.039 113.812 152.695 112.568C151.35 111.324 150.303 109.792 149.632 108.088C148.197 103.998 148.197 99.5418 149.632 95.4528C150.302 93.7478 151.349 92.2166 152.693 90.9736C154.038 89.7306 155.646 88.8081 157.397 88.2749C159.319 87.6349 161.335 87.3273 163.359 87.3655C164.319 87.3542 165.279 87.4056 166.232 87.5194C167.09 87.64 167.939 87.8248 168.769 88.0721C169.559 88.3099 170.328 88.5898 171.09 88.9046C171.851 89.2207 172.595 89.5756 173.32 89.968V96.6001L171.488 95.3758C170.801 94.9728 170.086 94.6175 169.349 94.3125C168.507 93.9735 167.637 93.709 166.749 93.5219C165.718 93.2871 164.661 93.1814 163.604 93.2071C162.076 93.1596 160.552 93.3969 159.11 93.9067C158.021 94.3176 157.046 94.9819 156.265 95.8446Z" fill="#F4F4F4"/>
<path d="M176.36 88.1914H200.083V94.152H191.066V115.588H185.349V94.152H176.36V88.1914Z" fill="#F4F4F4"/>
<path d="M227.083 105.318C227.304 106.21 227.406 107.127 227.384 108.046C227.401 108.976 227.3 109.905 227.083 110.809C226.899 111.531 226.586 112.213 226.161 112.824C225.798 113.383 225.321 113.86 224.763 114.223C224.203 114.587 223.593 114.867 222.952 115.056C222.268 115.265 221.566 115.41 220.856 115.49C220.094 115.569 219.329 115.609 218.563 115.609H203.186V88.1914H218.29C218.894 88.1904 219.496 88.2301 220.094 88.3104C221.272 88.3811 222.41 88.7625 223.393 89.4157C223.893 89.7437 224.319 90.1726 224.644 90.675C225.029 91.242 225.32 91.8682 225.504 92.5289C225.697 93.385 225.788 94.2609 225.776 95.1384C225.85 96.6053 225.501 98.0626 224.77 99.336C224.015 100.428 222.864 101.181 221.562 101.435C222.473 101.484 223.37 101.682 224.218 102.022C224.9 102.321 225.507 102.771 225.991 103.338C226.475 103.905 226.825 104.575 227.013 105.297L227.083 105.318ZM208.987 93.6763V98.8463H217.375C217.848 98.8546 218.32 98.7885 218.773 98.6504C219.104 98.5308 219.407 98.3424 219.66 98.0977C219.868 97.8699 220.026 97.6004 220.122 97.3072C220.189 96.9823 220.229 96.6523 220.241 96.3207C220.231 95.989 220.191 95.6588 220.122 95.3343C220.034 95.0251 219.876 94.7403 219.66 94.5018C219.409 94.2456 219.107 94.0454 218.773 93.9141C218.328 93.7401 217.852 93.6591 217.375 93.6763H208.987ZM221.366 108.676C221.538 108.196 221.62 107.688 221.61 107.178C221.628 106.666 221.545 106.155 221.366 105.674C221.219 105.296 220.951 104.976 220.604 104.765C220.166 104.55 219.692 104.417 219.206 104.373C218.548 104.289 217.885 104.249 217.221 104.254H208.987V110.061H217.242C217.905 110.079 218.568 110.051 219.227 109.977C219.72 109.941 220.198 109.793 220.625 109.543C220.943 109.333 221.189 109.03 221.331 108.676H221.366Z" fill="#F4F4F4"/>
<path d="M250.687 88.1914H256.929V115.588H251.176V96.7545L236.869 115.588H230.697V88.1914H236.379V107.081L250.687 88.1914Z" fill="#F4F4F4"/>
<path d="M266.19 109.739H282V115.588H260.333V88.1914H281.79V94.033H266.19V98.5734H280.98V104.415H266.19V109.739Z" fill="#F4F4F4"/>
<path fill-rule="evenodd" clip-rule="evenodd" d="M137.785 0C136.09 0.00370723 134.466 0.680725 133.269 1.88231C132.073 3.0839 131.401 4.71178 131.403 6.4083V23.8422C131.403 23.974 131.456 24.1003 131.549 24.1935C131.642 24.2866 131.768 24.339 131.9 24.339H136.792C136.926 24.3399 137.058 24.3143 137.182 24.2638C137.306 24.2132 137.419 24.1386 137.513 24.0443C137.608 23.95 137.684 23.8379 137.735 23.7144C137.786 23.5908 137.813 23.4583 137.813 23.3245V8.3182C137.813 7.91186 137.974 7.52216 138.261 7.23483C138.548 6.9475 138.937 6.78608 139.343 6.78608H155.308C155.347 6.78609 155.385 6.77827 155.422 6.76307C155.458 6.74786 155.49 6.72559 155.518 6.69756C155.545 6.66953 155.566 6.63631 155.581 6.59985C155.595 6.56339 155.602 6.52443 155.601 6.48526C155.601 5.6336 155.434 4.79028 155.108 4.00346C154.782 3.21663 154.305 2.5017 153.703 1.89949C153.102 1.29728 152.387 0.819575 151.601 0.493661C150.815 0.167746 149.973 0 149.122 0L137.785 0ZM127.783 9.97624C127.784 9.94199 127.778 9.9079 127.765 9.87605C127.752 9.84421 127.733 9.81529 127.709 9.79106C127.685 9.76683 127.656 9.7478 127.624 9.73513C127.592 9.72246 127.558 9.71643 127.524 9.71739C125.896 9.71925 124.335 10.368 123.184 11.521C122.034 12.674 121.387 14.2371 121.387 15.8668V23.7863C121.387 23.8625 121.402 23.938 121.431 24.0085C121.461 24.0789 121.503 24.1429 121.557 24.1969C121.611 24.2508 121.675 24.2936 121.745 24.3227C121.816 24.3519 121.891 24.3669 121.967 24.3669H126.762C126.896 24.3679 127.028 24.3423 127.152 24.2917C127.276 24.2412 127.389 24.1666 127.483 24.0723C127.578 23.978 127.654 23.8659 127.705 23.7423C127.756 23.6188 127.783 23.4863 127.783 23.3525V9.97624ZM155.601 19.7706C155.601 19.4997 155.494 19.2399 155.302 19.0483C155.111 18.8568 154.851 18.7492 154.581 18.7492H150.226C150.092 18.7492 149.959 18.7756 149.836 18.8269C149.712 18.8783 149.599 18.9535 149.505 19.0483C149.41 19.1432 149.335 19.2558 149.283 19.3797C149.232 19.5036 149.206 19.6365 149.206 19.7706V42.3955C149.206 42.5297 149.232 42.6625 149.283 42.7864C149.335 42.9103 149.41 43.0229 149.505 43.1178C149.599 43.2126 149.712 43.2879 149.836 43.3392C149.959 43.3905 150.092 43.4169 150.226 43.4169H154.581C154.851 43.4169 155.111 43.3093 155.302 43.1178C155.494 42.9262 155.601 42.6664 155.601 42.3955V19.7706ZM165.009 16.1747C165.003 14.4806 164.327 12.8578 163.128 11.6618C161.93 10.4659 160.306 9.79434 158.614 9.79435H141.839C141.568 9.79435 141.308 9.90196 141.117 10.0935C140.926 10.2851 140.818 10.5449 140.818 10.8158V15.552C140.818 15.6862 140.845 15.819 140.896 15.9429C140.947 16.0668 141.022 16.1794 141.117 16.2743C141.212 16.3691 141.324 16.4444 141.448 16.4957C141.572 16.547 141.705 16.5734 141.839 16.5734H157.104C157.51 16.5734 157.901 16.7346 158.189 17.0218C158.477 17.3089 158.64 17.6986 158.642 18.1055V44.1165C158.642 44.3183 158.602 44.5181 158.524 44.7045C158.447 44.8908 158.334 45.06 158.191 45.2024C158.048 45.3447 157.878 45.4575 157.692 45.534C157.505 45.6106 157.305 45.6496 157.104 45.6487H141.818C141.547 45.6487 141.288 45.7563 141.096 45.9478C140.905 46.1394 140.797 46.3992 140.797 46.6701V51.4133C140.797 51.5471 140.824 51.6796 140.875 51.8032C140.926 51.9267 141.002 52.0388 141.097 52.1331C141.191 52.2274 141.304 52.302 141.428 52.3525C141.552 52.4031 141.684 52.4287 141.818 52.4277H158.593C159.432 52.4277 160.264 52.2622 161.04 51.9405C161.816 51.6188 162.521 51.1473 163.115 50.5528C163.709 49.9584 164.18 49.2528 164.501 48.4761C164.823 47.6995 164.988 46.8671 164.988 46.0264V16.1957L165.009 16.1747ZM141.608 28.9423C141.608 28.8085 141.582 28.676 141.53 28.5525C141.479 28.4289 141.404 28.3168 141.309 28.2225C141.214 28.1282 141.101 28.0536 140.978 28.0031C140.854 27.9525 140.721 27.927 140.588 27.9279H118.004C117.735 27.9279 117.476 28.0345 117.285 28.2246C117.094 28.4146 116.986 28.6726 116.984 28.9423V33.3078C116.984 33.5787 117.091 33.8385 117.283 34.03C117.474 34.2216 117.734 34.3292 118.004 34.3292H140.588C140.858 34.3292 141.118 34.2216 141.309 34.03C141.501 33.8385 141.608 33.5787 141.608 33.3078V28.9423ZM131.403 55.8138C131.403 56.6544 131.569 57.4868 131.89 58.2635C132.212 59.0401 132.683 59.7458 133.276 60.3402C133.87 60.9346 134.575 61.4061 135.351 61.7278C136.127 62.0495 136.959 62.2151 137.799 62.2151H149.136C149.987 62.2151 150.829 62.0473 151.615 61.7214C152.401 61.3955 153.116 60.9178 153.717 60.3156C154.319 59.7134 154.796 58.9985 155.122 58.2116C155.447 57.4248 155.615 56.5815 155.615 55.7298C155.616 55.6907 155.609 55.6517 155.595 55.6152C155.58 55.5788 155.559 55.5456 155.532 55.5175C155.504 55.4895 155.472 55.4672 155.435 55.452C155.399 55.4368 155.361 55.429 155.322 55.429H139.315C139.112 55.43 138.91 55.3901 138.722 55.3117C138.534 55.2333 138.364 55.118 138.221 54.9725C138.078 54.8271 137.966 54.6545 137.891 54.4649C137.816 54.2754 137.78 54.0727 137.785 53.8689V39.0445C137.785 38.7736 137.677 38.5138 137.486 38.3222C137.294 38.1307 137.035 38.0231 136.764 38.0231H131.872C131.742 38.0231 131.617 38.0746 131.526 38.1665C131.434 38.2583 131.382 38.3829 131.382 38.5128V55.8068L131.403 55.8138ZM121.387 46.1734C121.387 47.8433 122.05 49.4448 123.23 50.6256C124.409 51.8064 126.01 52.4697 127.678 52.4697C127.711 52.4697 127.743 52.4565 127.767 52.4328C127.79 52.4092 127.804 52.3772 127.804 52.3438V39.0794C127.804 38.8098 127.697 38.551 127.507 38.3597C127.317 38.1683 127.06 38.0599 126.79 38.058H121.702C121.624 38.058 121.549 38.089 121.494 38.1441C121.439 38.1992 121.408 38.2739 121.408 38.3519V46.1734H121.387Z" fill="#F4F4F4"/>
<path d="M37.408 136.457C36.622 136.035 35.7416 135.821 34.8499 135.834C33.9569 135.817 33.075 136.034 32.2917 136.464C31.5607 136.874 30.9508 137.47 30.5233 138.192C30.0802 138.956 29.8553 139.827 29.8733 140.71C29.8592 141.593 30.0838 142.463 30.5233 143.229C30.9447 143.961 31.5588 144.564 32.2987 144.971C33.0855 145.388 33.9627 145.607 34.8534 145.607C35.7441 145.607 36.6212 145.388 37.408 144.971C38.144 144.564 38.7554 143.964 39.1764 143.236C39.5936 142.458 39.812 141.589 39.812 140.707C39.812 139.824 39.5936 138.955 39.1764 138.178C38.7548 137.453 38.1433 136.858 37.408 136.457ZM37.6527 142.487C37.3898 142.982 36.9924 143.392 36.5064 143.669C36.001 143.953 35.4294 144.098 34.8499 144.089C34.2748 144.098 33.7077 143.953 33.2073 143.669C32.7239 143.386 32.3256 142.978 32.0541 142.487C31.7581 141.942 31.6088 141.33 31.6207 140.71C31.6051 140.09 31.7547 139.476 32.0541 138.933C32.33 138.45 32.7276 138.047 33.2073 137.765C33.7095 137.486 34.2758 137.344 34.8499 137.352C35.4284 137.344 35.9991 137.486 36.5064 137.765C36.9886 138.041 37.3853 138.446 37.6527 138.933C37.9384 139.481 38.0803 140.092 38.0651 140.71C38.077 141.328 37.9353 141.938 37.6527 142.487Z" fill="#F4F4F4"/>
<path d="M50.0103 135.925H48.1161L45.488 139.374L42.8669 135.925H40.9308L44.5165 140.605L40.7561 145.495H42.6852L45.474 141.822L48.2419 145.495H50.2129L46.4037 140.598L50.0103 135.925Z" fill="#F4F4F4"/>
<path d="M59.8654 136.422C59.1054 135.999 58.2465 135.786 57.3771 135.806C56.6049 135.795 55.8425 135.98 55.1615 136.345C54.6914 136.612 54.2839 136.977 53.9662 137.415V135.897H52.3027V149.014H54.0361V144.047C54.359 144.458 54.7606 144.801 55.2174 145.055C55.8847 145.424 56.6358 145.614 57.3981 145.607C58.2669 145.622 59.1247 145.41 59.8864 144.992C60.6021 144.586 61.194 143.994 61.5988 143.278C62.0303 142.492 62.2473 141.606 62.2279 140.71C62.2485 139.818 62.0314 138.937 61.5988 138.157C61.1922 137.429 60.5922 136.829 59.8654 136.422ZM60.0332 142.459C59.7696 142.956 59.3694 143.366 58.8799 143.641C58.3762 143.917 57.8114 144.061 57.2373 144.061C56.6633 144.061 56.0985 143.917 55.5948 143.641C55.1067 143.364 54.7069 142.954 54.4415 142.459C54.148 141.914 54.0011 141.301 54.0152 140.682C53.9975 140.062 54.1446 139.449 54.4415 138.905C54.7114 138.417 55.1105 138.013 55.5948 137.737C56.1004 137.467 56.6645 137.326 57.2373 137.326C57.8102 137.326 58.3743 137.467 58.8799 137.737C59.3658 138.011 59.7654 138.416 60.0332 138.905C60.3301 139.449 60.4772 140.062 60.4595 140.682C60.4785 141.311 60.3315 141.933 60.0332 142.487V142.459Z" fill="#F4F4F4"/>
<path d="M68.3088 135.834C67.5726 135.831 66.8401 135.937 66.135 136.149C65.4907 136.336 64.888 136.644 64.3597 137.058L65.0586 138.359C65.4758 138.028 65.9493 137.774 66.4565 137.611C66.9922 137.428 67.5541 137.333 68.12 137.331C68.8153 137.278 69.5041 137.496 70.0422 137.94C70.2625 138.163 70.4331 138.431 70.5428 138.725C70.6524 139.019 70.6986 139.333 70.6782 139.647V139.989H67.9313C67.1585 139.957 66.3873 140.086 65.6667 140.367C65.1657 140.567 64.7419 140.923 64.4575 141.382C64.2111 141.806 64.0831 142.29 64.0871 142.781C64.0812 143.299 64.2323 143.806 64.5204 144.236C64.8274 144.682 65.2571 145.03 65.7576 145.236C66.346 145.492 66.9827 145.616 67.6238 145.6C68.3816 145.628 69.1334 145.457 69.8045 145.103C70.1885 144.889 70.5166 144.587 70.7621 144.222V145.516H72.4046V139.738C72.4475 139.202 72.3747 138.664 72.1914 138.16C72.0081 137.655 71.7185 137.196 71.3422 136.813C70.4891 136.118 69.4067 135.769 68.3088 135.834ZM69.6158 143.837C69.0972 144.134 68.5076 144.284 67.9104 144.271C67.3607 144.299 66.8166 144.15 66.3587 143.844C66.1816 143.716 66.0382 143.546 65.9409 143.35C65.8435 143.154 65.795 142.937 65.7995 142.718C65.7971 142.521 65.8364 142.325 65.9147 142.145C65.993 141.964 66.1085 141.801 66.2538 141.668C66.7656 141.319 67.3857 141.165 68.0012 141.235H70.6712V142.571C70.4738 143.101 70.1014 143.548 69.6158 143.837Z" fill="#F4F4F4"/>
<path d="M82.9798 139.989H77.5279V135.925H75.8015V145.495H77.5279V141.487H82.9798V145.495H84.7132V135.925H82.9798V139.989Z" fill="#F4F4F4"/>
<path d="M95.5401 139.989H90.0952V135.925H88.3618V145.495H90.0952V141.487H95.5401V145.495H97.2735V135.925H95.5401V139.989Z" fill="#F4F4F4"/>
<path d="M104.333 135.834C103.597 135.83 102.864 135.936 102.159 136.149C101.513 136.337 100.909 136.646 100.377 137.058L101.076 138.359C101.492 138.026 101.966 137.772 102.474 137.611C103.007 137.427 103.566 137.333 104.13 137.331C104.825 137.278 105.514 137.496 106.052 137.94C106.274 138.163 106.445 138.43 106.556 138.724C106.667 139.018 106.714 139.333 106.695 139.647V139.989H103.948C103.176 139.957 102.404 140.086 101.684 140.367C101.184 140.569 100.761 140.924 100.475 141.382C100.228 141.806 100.1 142.29 100.104 142.781C100.098 143.298 100.249 143.806 100.538 144.236C100.849 144.678 101.277 145.025 101.775 145.236C102.366 145.491 103.005 145.615 103.648 145.6C104.405 145.626 105.157 145.455 105.829 145.103C106.21 144.886 106.537 144.584 106.786 144.222V145.516H108.429V139.737C108.472 139.202 108.399 138.663 108.214 138.158C108.03 137.653 107.738 137.194 107.359 136.813C106.509 136.119 105.429 135.769 104.333 135.834ZM105.64 143.837C105.121 144.133 104.532 144.283 103.934 144.271C103.385 144.301 102.84 144.152 102.383 143.844C102.204 143.717 102.06 143.547 101.962 143.351C101.865 143.154 101.817 142.937 101.824 142.718C101.82 142.521 101.858 142.326 101.936 142.145C102.013 141.965 102.127 141.802 102.271 141.668C102.785 141.319 103.408 141.165 104.025 141.235H106.695V142.571C106.498 143.101 106.126 143.548 105.64 143.837Z" fill="#F4F4F4"/>
<path d="M112.245 136.771C111.862 137.062 111.556 137.444 111.356 137.882C111.156 138.32 111.068 138.801 111.099 139.282C111.073 139.733 111.157 140.184 111.343 140.596C111.529 141.008 111.812 141.368 112.168 141.647C112.519 141.906 112.915 142.098 113.335 142.213L111.008 145.516H112.867L114.964 142.472H117.934V145.516H119.521V135.924H115.327C114.235 135.862 113.153 136.159 112.245 136.771ZM117.934 137.47V141.241H115.285C113.668 141.241 112.862 140.616 112.867 139.366C112.841 139.088 112.887 138.808 113.001 138.553C113.115 138.298 113.293 138.077 113.517 137.911C114.073 137.586 114.713 137.432 115.355 137.47H117.934Z" fill="#F4F4F4"/>
<path d="M134.898 136.457C134.112 136.035 133.232 135.821 132.34 135.834C131.447 135.817 130.565 136.034 129.782 136.464C129.051 136.874 128.441 137.47 128.013 138.192C127.57 138.956 127.345 139.827 127.363 140.71C127.349 141.593 127.574 142.463 128.013 143.229C128.435 143.961 129.049 144.564 129.789 144.971C130.576 145.388 131.453 145.607 132.343 145.607C133.234 145.607 134.111 145.388 134.898 144.971C135.634 144.564 136.245 143.964 136.666 143.236C137.084 142.458 137.302 141.589 137.302 140.707C137.302 139.824 137.084 138.955 136.666 138.178C136.245 137.453 135.633 136.858 134.898 136.457ZM135.136 142.487C134.878 142.983 134.482 143.393 133.996 143.669C133.491 143.953 132.919 144.098 132.34 144.089C131.765 144.099 131.197 143.954 130.697 143.669C130.212 143.388 129.814 142.979 129.544 142.487C129.248 141.942 129.099 141.33 129.111 140.71C129.095 140.09 129.245 139.476 129.544 138.933C129.818 138.448 130.216 138.045 130.697 137.765C131.199 137.486 131.766 137.343 132.34 137.352C132.918 137.344 133.489 137.486 133.996 137.765C134.478 138.039 134.873 138.444 135.136 138.933C135.427 139.479 135.572 140.091 135.555 140.71C135.572 141.327 135.433 141.939 135.15 142.487H135.136Z" fill="#F4F4F4"/>
<path d="M147.661 136.421C146.898 136 146.037 135.787 145.166 135.806C144.396 135.795 143.636 135.981 142.957 136.344C142.484 136.61 142.073 136.975 141.755 137.415V135.897H140.098V149.014H141.832V144.047C142.145 144.463 142.54 144.81 142.992 145.068C143.657 145.436 144.406 145.627 145.166 145.621C146.037 145.636 146.897 145.424 147.661 145.005C148.377 144.6 148.969 144.008 149.374 143.291C149.805 142.506 150.022 141.62 150.003 140.724C150.023 139.832 149.806 138.951 149.374 138.17C148.975 137.441 148.382 136.835 147.661 136.421ZM147.829 142.459C147.565 142.955 147.165 143.366 146.676 143.641C146.172 143.917 145.607 144.061 145.033 144.061C144.459 144.061 143.894 143.917 143.39 143.641C142.901 143.366 142.501 142.955 142.237 142.459C141.944 141.914 141.797 141.301 141.811 140.682C141.793 140.062 141.94 139.449 142.237 138.905C142.505 138.415 142.905 138.011 143.39 137.737C143.896 137.467 144.46 137.326 145.033 137.326C145.606 137.326 146.17 137.467 146.676 137.737C147.161 138.011 147.561 138.415 147.829 138.905C148.126 139.449 148.273 140.062 148.255 140.682C148.274 141.311 148.127 141.933 147.829 142.487V142.459Z" fill="#F4F4F4"/>
<path d="M152.784 145.495H154.518V137.443H159.823V135.925H152.784V145.495Z" fill="#F4F4F4"/>
<path d="M165.275 135.834C164.539 135.83 163.806 135.936 163.101 136.149C162.455 136.335 161.85 136.644 161.319 137.058L162.018 138.359C162.435 138.028 162.909 137.775 163.416 137.611C163.949 137.427 164.508 137.333 165.072 137.331C165.767 137.278 166.456 137.496 166.994 137.94C167.215 138.163 167.387 138.43 167.498 138.724C167.609 139.018 167.656 139.333 167.637 139.647V139.989H164.89C164.117 139.957 163.346 140.086 162.626 140.367C162.126 140.569 161.703 140.924 161.417 141.382C161.17 141.806 161.042 142.29 161.046 142.781C161.04 143.298 161.191 143.806 161.479 144.236C161.791 144.678 162.219 145.025 162.717 145.236C163.305 145.49 163.942 145.614 164.583 145.6C165.343 145.627 166.097 145.456 166.77 145.103C167.152 144.886 167.479 144.584 167.728 144.222V145.516H169.371V139.737C169.414 139.202 169.341 138.663 169.156 138.158C168.972 137.653 168.68 137.194 168.301 136.813C167.451 136.119 166.371 135.769 165.275 135.834ZM166.582 143.837C166.063 144.133 165.474 144.283 164.876 144.271C164.326 144.301 163.782 144.152 163.325 143.844C163.146 143.717 163.002 143.547 162.904 143.351C162.807 143.154 162.759 142.937 162.765 142.718C162.762 142.521 162.8 142.326 162.877 142.145C162.955 141.965 163.069 141.802 163.213 141.668C163.727 141.319 164.349 141.165 164.967 141.235H167.637V142.571C167.437 143.1 167.066 143.546 166.582 143.837Z" fill="#F4F4F4"/>
<path d="M179.946 139.989H174.494V135.925H172.76V145.495H174.494V141.487H179.946V145.495H181.679V135.925H179.946V139.989Z" fill="#F4F4F4"/>
<path d="M187.054 142.893V135.925H185.321V145.495H186.907L192.758 138.52V145.495H194.491V135.925H192.918L187.054 142.893Z" fill="#F4F4F4"/>
<path d="M204.213 140.983C203.881 140.757 203.508 140.595 203.116 140.507L203.277 140.458C203.726 140.28 204.122 139.991 204.43 139.619C204.716 139.278 204.87 138.846 204.863 138.401C204.867 137.879 204.663 137.376 204.297 137.002C203.867 136.574 203.336 136.261 202.753 136.093C202.036 135.872 201.286 135.777 200.537 135.813C199.972 135.822 199.41 135.905 198.866 136.058C198.279 136.217 197.708 136.43 197.161 136.694L197.629 138.052C198.115 137.81 198.626 137.623 199.153 137.492C199.636 137.374 200.131 137.307 200.628 137.289C201.062 137.281 201.496 137.338 201.914 137.457C202.237 137.534 202.534 137.696 202.774 137.926C202.873 138.022 202.951 138.137 203.004 138.265C203.057 138.392 203.083 138.529 203.081 138.667C203.084 138.926 202.989 139.176 202.816 139.367C202.627 139.575 202.385 139.727 202.117 139.808C201.758 139.912 201.386 139.961 201.012 139.955H199.391V141.2H201.124C201.699 141.168 202.272 141.294 202.781 141.564C202.966 141.663 203.119 141.811 203.224 141.993C203.329 142.175 203.381 142.382 203.375 142.592C203.38 142.897 203.264 143.191 203.053 143.411C202.797 143.673 202.476 143.864 202.124 143.963C201.66 144.106 201.176 144.175 200.691 144.166C200.086 144.165 199.484 144.083 198.901 143.921C198.349 143.764 197.822 143.529 197.336 143.222L196.812 144.537C197.379 144.903 198.003 145.174 198.657 145.341C199.34 145.527 200.045 145.621 200.754 145.621C201.518 145.636 202.278 145.511 202.997 145.251C203.595 145.044 204.131 144.691 204.556 144.222C204.934 143.805 205.141 143.26 205.136 142.697C205.144 142.356 205.062 142.019 204.901 141.718C204.739 141.418 204.502 141.164 204.213 140.983Z" fill="#F4F4F4"/>
<path d="M211.455 135.834C210.718 135.83 209.986 135.936 209.281 136.148C208.635 136.337 208.03 136.645 207.499 137.058L208.197 138.359C208.615 138.028 209.088 137.774 209.595 137.61C210.129 137.427 210.688 137.333 211.252 137.331C211.947 137.277 212.636 137.495 213.174 137.939C213.395 138.162 213.567 138.43 213.678 138.724C213.789 139.018 213.836 139.333 213.817 139.646V139.989H211.084C210.311 139.957 209.54 140.086 208.82 140.367C208.32 140.569 207.897 140.924 207.61 141.381C207.364 141.806 207.236 142.289 207.24 142.781C207.234 143.298 207.385 143.806 207.673 144.236C207.984 144.678 208.413 145.025 208.91 145.236C209.499 145.49 210.136 145.614 210.777 145.6C211.537 145.627 212.291 145.456 212.964 145.103C213.346 144.885 213.673 144.584 213.922 144.222V145.516H215.564V139.737C215.608 139.201 215.535 138.663 215.35 138.158C215.165 137.653 214.874 137.194 214.495 136.813C213.641 136.115 212.555 135.766 211.455 135.834ZM212.762 143.837C212.243 144.133 211.653 144.283 211.056 144.271C210.506 144.301 209.962 144.151 209.505 143.844C209.326 143.717 209.182 143.547 209.084 143.351C208.987 143.154 208.939 142.937 208.945 142.718C208.942 142.521 208.98 142.326 209.057 142.145C209.134 141.964 209.249 141.802 209.393 141.668C209.907 141.319 210.529 141.165 211.147 141.234H213.817V142.571C213.62 143.101 213.247 143.547 212.762 143.837Z" fill="#F4F4F4"/>
<path d="M227.642 135.925H225.909V143.977H220.674V135.925H218.94V145.495H225.909H227.51V147.72H229.152V143.977H227.642V135.925Z" fill="#F4F4F4"/>
<path d="M233.395 142.893V135.925H231.661V145.495H233.248L239.098 138.52V145.495H240.832V135.925H239.259L233.395 142.893Z" fill="#F4F4F4"/>
<path d="M247.94 135.924C246.855 135.869 245.781 136.166 244.879 136.771C244.497 137.064 244.194 137.446 243.995 137.884C243.797 138.322 243.709 138.802 243.739 139.282C243.713 139.734 243.797 140.185 243.984 140.596C244.17 141.008 244.453 141.369 244.809 141.647C245.158 141.905 245.551 142.097 245.969 142.214L243.648 145.516H245.508L247.605 142.473H250.575V145.516H252.127V135.924H247.94ZM245.508 139.338C245.482 139.06 245.528 138.78 245.642 138.526C245.756 138.271 245.933 138.049 246.158 137.883C246.713 137.556 247.353 137.403 247.996 137.443H250.575V141.213H247.926C246.314 141.213 245.508 140.588 245.508 139.338Z" fill="#F4F4F4"/>
</svg>
