<svg width="453" height="586" viewBox="0 0 453 586" fill="none" xmlns="http://www.w3.org/2000/svg">
<g clip-path="url(#clip0_222_1987)">
<path fill-rule="evenodd" clip-rule="evenodd" d="M196.165 0C162.847 0 135.83 27.0405 135.83 60.341V224.584C135.83 227.177 137.942 229.288 140.536 229.288H186.566C191.866 229.288 196.202 224.991 196.202 219.657V78.3432C196.202 70.3793 202.651 63.897 210.656 63.897H361.496C363.015 63.897 364.275 62.6746 364.275 61.1188C364.275 27.3738 336.887 0 303.124 0H196.202H196.165ZM101.844 93.9378C101.844 92.6043 100.77 91.5301 99.4354 91.5301C67.4515 91.5301 41.5086 117.459 41.5086 149.426V223.732C41.5086 226.769 43.9917 229.251 47.0308 229.251H92.2455C97.5453 229.251 101.881 224.954 101.881 219.62V93.9378H101.844ZM364.238 186.394C364.238 181.097 359.939 176.763 354.602 176.763H313.501C308.202 176.763 303.865 181.06 303.865 186.394V399.31C303.865 404.607 308.164 408.941 313.501 408.941H354.602C359.902 408.941 364.238 404.644 364.238 399.31V186.431V186.394ZM453 152.501C453 119.163 425.982 92.1968 392.664 92.1968H234.227C228.928 92.1968 224.591 96.4937 224.591 101.828V146.463C224.591 151.76 228.89 156.094 234.227 156.094H378.247C386.216 156.094 392.701 162.539 392.701 170.54V415.534C392.701 423.498 386.253 429.98 378.247 429.98H234.227C228.928 429.98 224.591 434.277 224.591 439.611V484.246C224.591 489.543 228.89 493.877 234.227 493.877H392.664C426.019 493.877 453 466.837 453 433.573V152.538V152.501ZM232.263 272.59C232.263 267.293 227.964 262.959 222.627 262.959H9.63593C4.33617 262.959 0 267.256 0 272.59V313.669C0 318.966 4.29911 323.3 9.63593 323.3H222.627C227.927 323.3 232.263 319.003 232.263 313.669V272.59ZM135.83 525.659C135.83 558.997 162.847 585.963 196.165 585.963H303.087C336.85 585.963 364.238 558.589 364.238 524.844C364.238 523.325 363.015 522.066 361.459 522.066H210.619C202.651 522.066 196.165 515.621 196.165 507.62V367.676C196.165 362.379 191.866 358.045 186.529 358.045H140.462C137.868 358.045 135.793 360.12 135.793 362.713V525.585L135.83 525.659ZM41.4716 434.722C41.4716 467.355 67.9704 493.84 100.621 493.84C101.326 493.84 101.844 493.285 101.844 492.581V368.084C101.844 362.787 97.5453 358.453 92.2085 358.453H44.2882C42.7687 358.453 41.5457 359.675 41.5457 361.194V434.722H41.4716Z" fill="#293F9A"/>
</g>
<defs>
<clipPath id="clip0_222_1987">
<rect width="453" height="586" rx="8" fill="white"/>
</clipPath>
</defs>
</svg>
