<svg width="100" height="100" viewBox="0 0 100 100" fill="none" xmlns="http://www.w3.org/2000/svg">
<path d="M13.0206 33.2631C13.2617 33.2631 13.4975 33.1916 13.698 33.0576C13.8985 32.9236 14.0548 32.7332 14.1471 32.5104C14.2394 32.2876 14.2635 32.0424 14.2165 31.8059C14.1694 31.5694 14.0533 31.3521 13.8828 31.1816C13.7122 31.0111 13.495 30.8949 13.2585 30.8479C13.0219 30.8008 12.7768 30.825 12.554 30.9173C12.3312 31.0096 12.1407 31.1658 12.0068 31.3664C11.8728 31.5669 11.8013 31.8026 11.8013 32.0438C11.8013 32.3672 11.9297 32.6773 12.1584 32.906C12.3871 33.1346 12.6972 33.2631 13.0206 33.2631Z" fill="white"/>
<path fill-rule="evenodd" clip-rule="evenodd" d="M47.5664 26.386C46.277 26.386 45.0403 26.898 44.1283 27.8094C43.2162 28.7208 42.7034 29.9571 42.7025 31.2465V44.4847C42.7025 44.5851 42.7424 44.6813 42.8134 44.7523C42.8844 44.8233 42.9807 44.8632 43.081 44.8632H46.7892C46.8911 44.8636 46.9921 44.8439 47.0864 44.8053C47.1806 44.7666 47.2663 44.7096 47.3385 44.6377C47.4107 44.5658 47.468 44.4804 47.5071 44.3863C47.5462 44.2922 47.5664 44.1913 47.5664 44.0894V32.7003C47.5664 32.392 47.6888 32.0963 47.9068 31.8783C48.1248 31.6604 48.4204 31.5379 48.7287 31.5379H60.8816C60.9409 31.537 60.9974 31.5131 61.0393 31.4712C61.0812 31.4293 61.1052 31.3727 61.106 31.3135C61.106 30.0072 60.5874 28.7544 59.664 27.8304C58.7406 26.9064 57.4882 26.3869 56.1819 26.386H47.5664ZM39.9624 33.9564C39.9629 33.9308 39.9582 33.9053 39.9486 33.8815C39.939 33.8578 39.9247 33.8362 39.9065 33.818C39.8884 33.7999 39.8668 33.7856 39.843 33.776C39.8192 33.7664 39.7938 33.7617 39.7681 33.7621C38.5306 33.7621 37.3437 34.2537 36.4686 35.1288C35.5936 36.0039 35.1019 37.1908 35.1019 38.4283V44.4177C35.1028 44.5356 35.15 44.6484 35.2334 44.7317C35.3168 44.8151 35.4296 44.8623 35.5475 44.8632H39.192C39.2937 44.8636 39.3945 44.8439 39.4886 44.8052C39.5827 44.7665 39.6682 44.7095 39.7401 44.6375C39.8121 44.5656 39.869 44.4801 39.9078 44.386C39.9465 44.292 39.9662 44.1911 39.9658 44.0894L39.9624 33.9564ZM61.1027 41.4096C61.1027 41.2044 61.0212 41.0076 60.876 40.8624C60.7309 40.7173 60.5341 40.6358 60.3289 40.6358H57.016C56.8108 40.6358 56.614 40.7173 56.4688 40.8624C56.3237 41.0076 56.2422 41.2044 56.2422 41.4096V58.5704C56.2418 58.6723 56.2614 58.7732 56.3001 58.8675C56.3388 58.9618 56.3958 59.0475 56.4677 59.1197C56.5395 59.1919 56.625 59.2492 56.7191 59.2883C56.8132 59.3274 56.9141 59.3475 57.016 59.3475H60.3289C60.4308 59.3475 60.5317 59.3274 60.6258 59.2883C60.7199 59.2492 60.8053 59.1919 60.8772 59.1197C60.9491 59.0475 61.0061 58.9618 61.0447 58.8675C61.0834 58.7732 61.1031 58.6723 61.1027 58.5704V41.4096ZM68.2544 38.6796C68.2508 37.3916 67.7363 36.1578 66.8237 35.249C65.9111 34.3402 64.6751 33.8307 63.3872 33.8325H50.6213C50.4161 33.8325 50.2193 33.914 50.0742 34.0591C49.9291 34.2042 49.8475 34.401 49.8475 34.6063V38.1871C49.8475 38.3924 49.9291 38.5892 50.0742 38.7343C50.2193 38.8794 50.4161 38.9609 50.6213 38.9609H62.2248C62.3778 38.9609 62.5292 38.9911 62.6704 39.0497C62.8117 39.1084 62.94 39.1943 63.048 39.3026C63.1559 39.4109 63.2415 39.5394 63.2997 39.6808C63.3579 39.8222 63.3877 39.9737 63.3872 40.1267V59.8902C63.3877 60.0431 63.3579 60.1946 63.2997 60.336C63.2415 60.4774 63.1559 60.6059 63.048 60.7142C62.94 60.8225 62.8117 60.9084 62.6704 60.9671C62.5292 61.0257 62.3778 61.0559 62.2248 61.0559H50.6213C50.4161 61.0559 50.2193 61.1374 50.0742 61.2825C49.9291 61.4276 49.8475 61.6244 49.8475 61.8297V65.4273C49.8475 65.6325 49.9291 65.8293 50.0742 65.9744C50.2193 66.1196 50.4161 66.2011 50.6213 66.2011H63.3872C64.6763 66.2011 65.9126 65.689 66.8241 64.7775C67.7356 63.866 68.2477 62.6297 68.2477 61.3406V38.6796H68.2544ZM50.4706 48.357C50.4706 48.1518 50.3891 47.9549 50.2439 47.8098C50.0988 47.6647 49.902 47.5832 49.6968 47.5832H32.5293C32.3238 47.5832 32.1266 47.6646 31.981 47.8096C31.8354 47.9546 31.7531 48.1514 31.7522 48.357V51.6699C31.7522 51.7718 31.7723 51.8727 31.8114 51.9668C31.8505 52.0609 31.9078 52.1463 31.98 52.2182C32.0522 52.2901 32.1379 52.347 32.2322 52.3857C32.3265 52.4244 32.4274 52.4441 32.5293 52.4437H49.6901C49.7918 52.4441 49.8927 52.4244 49.9867 52.3857C50.0808 52.3469 50.1663 52.29 50.2382 52.218C50.3102 52.1461 50.3672 52.0606 50.4059 51.9665C50.4446 51.8724 50.4643 51.7716 50.4639 51.6699L50.4706 48.357ZM42.7025 68.7569C42.7034 70.0463 43.2162 71.2826 44.1283 72.194C45.0403 73.1054 46.277 73.6174 47.5664 73.6174H56.1752C57.4812 73.6174 58.7336 73.0986 59.6571 72.1752C60.5805 71.2517 61.0993 69.9993 61.0993 68.6933C61.0993 68.6335 61.0758 68.576 61.0338 68.5334C60.9918 68.4908 60.9347 68.4664 60.8749 68.4655H48.722C48.4137 68.4655 48.1181 68.343 47.9001 68.1251C47.6821 67.9071 47.5597 67.6114 47.5597 67.3031V56.0245C47.5597 55.8184 47.4778 55.6208 47.332 55.475C47.1863 55.3293 46.9886 55.2474 46.7825 55.2474H43.071C43.0217 55.2474 42.9729 55.2571 42.9274 55.276C42.8819 55.2948 42.8405 55.3225 42.8057 55.3573C42.7709 55.3921 42.7432 55.4335 42.7244 55.479C42.7055 55.5245 42.6958 55.5733 42.6958 55.6226V68.7536L42.7025 68.7569ZM35.1019 61.4243C35.1019 62.6871 35.6033 63.8981 36.4959 64.7913C37.3885 65.6846 38.5992 66.1868 39.8619 66.1877C39.875 66.1881 39.888 66.186 39.9001 66.1813C39.9123 66.1766 39.9234 66.1695 39.9328 66.1604C39.9422 66.1514 39.9496 66.1405 39.9547 66.1285C39.9598 66.1165 39.9624 66.1036 39.9624 66.0905V56.0413C39.9615 55.8372 39.8801 55.6418 39.7358 55.4975C39.5915 55.3532 39.396 55.2717 39.192 55.2709H35.3197C35.2607 55.2717 35.2045 55.2958 35.1631 55.3378C35.1218 55.3798 35.0986 55.4363 35.0986 55.4953V61.421L35.1019 61.4243Z" fill="white"/>
<path d="M86.6478 33.263C86.8885 33.2611 87.1233 33.1879 87.3225 33.0527C87.5217 32.9175 87.6764 32.7264 87.7671 32.5034C87.8579 32.2804 87.8806 32.0356 87.8324 31.7998C87.7842 31.5639 87.6673 31.3476 87.4964 31.1781C87.3255 31.0085 87.1082 30.8934 86.872 30.8472C86.6357 30.8009 86.3911 30.8257 86.1689 30.9182C85.9467 31.0108 85.7568 31.1671 85.6233 31.3674C85.4897 31.5677 85.4185 31.803 85.4185 32.0437C85.4185 32.2047 85.4503 32.3641 85.5122 32.5127C85.5741 32.6613 85.6648 32.7961 85.7791 32.9095C85.8934 33.0228 86.029 33.1124 86.1781 33.1731C86.3272 33.2338 86.4869 33.2644 86.6478 33.263Z" fill="white"/>
<path d="M15.4959 25.0561C15.7876 25.6213 16.2445 26.0843 16.8057 26.3835C17.367 26.6827 18.0061 26.8039 18.6379 26.731C19.0471 26.683 19.4424 26.5532 19.8003 26.3491C20.5965 25.882 21.1928 25.1378 21.4752 24.2589C21.6008 23.8395 21.6238 23.396 21.5422 22.9659L20.5372 23.0965C20.5842 23.4051 20.566 23.72 20.4836 24.0211C20.4011 24.312 20.2584 24.5825 20.0649 24.815C19.88 25.0485 19.6527 25.2451 19.395 25.3945C19.1541 25.5293 18.8888 25.6147 18.6145 25.6457C18.3407 25.6734 18.0642 25.6472 17.8005 25.5686C17.5169 25.4828 17.2537 25.3404 17.0267 25.1499C16.7965 24.9661 16.6052 24.7384 16.4639 24.48C16.3346 24.2368 16.2549 23.9704 16.2295 23.6961C16.2034 23.4215 16.2342 23.1444 16.3199 22.8821C16.4135 22.5998 16.5589 22.3374 16.7487 22.1084C16.9376 21.8732 17.1738 21.6803 17.4421 21.5422C17.7194 21.4016 18.0227 21.3195 18.3331 21.3011L18.2628 20.2961C17.8242 20.3045 17.3942 20.4195 17.0099 20.6311C16.213 21.0849 15.6073 21.812 15.3049 22.6778C15.1752 23.0704 15.1251 23.4849 15.1575 23.8971C15.191 24.3023 15.3061 24.6966 15.4959 25.0561Z" fill="white"/>
<path d="M21.3714 20.1252C21.6373 20.4586 21.9691 20.7335 22.3462 20.9325C22.7065 21.123 23.1022 21.237 23.5085 21.2675C23.9263 21.2957 24.3454 21.2399 24.7412 21.1034C25.1657 20.9624 25.56 20.7431 25.9036 20.4569C26.2518 20.1778 26.5459 19.8372 26.7712 19.4519C26.9763 19.097 27.1076 18.7042 27.1571 18.2972C27.2066 17.8903 27.1733 17.4775 27.0593 17.0837C26.801 16.2579 26.2332 15.5641 25.4748 15.1475C25.114 14.9585 24.7186 14.8445 24.3125 14.8125C23.8999 14.7828 23.4854 14.8352 23.0932 14.9666C22.6717 15.1098 22.28 15.3289 21.9375 15.6131C21.5871 15.8909 21.2917 16.2317 21.0666 16.6181C20.8603 16.9794 20.7271 17.3777 20.6747 17.7905C20.6207 18.1968 20.6526 18.6099 20.7684 19.0031C20.8899 19.4147 21.0952 19.7968 21.3714 20.1252ZM21.7533 17.8273C21.7798 17.5526 21.8643 17.2865 22.0012 17.0468C22.1438 16.7893 22.3349 16.5619 22.5639 16.3769C22.7867 16.1903 23.0439 16.0492 23.321 15.9615C23.5816 15.8779 23.8566 15.8485 24.1291 15.875C24.4015 15.9015 24.6657 15.9834 24.9054 16.1156C25.4199 16.4141 25.8072 16.8908 25.9941 17.4555C26.0754 17.7175 26.1027 17.9933 26.0744 18.2661C26.047 18.5366 25.9649 18.7987 25.8333 19.0366C25.6938 19.2943 25.5048 19.522 25.2772 19.7065C25.0513 19.8938 24.7922 20.0369 24.5135 20.1286C24.251 20.2132 23.9739 20.2428 23.6995 20.2157C23.425 20.1851 23.1589 20.1021 22.9156 19.9712C22.6565 19.8337 22.4285 19.6445 22.2457 19.4151C22.0552 19.1912 21.9137 18.9299 21.8303 18.648C21.7526 18.3818 21.7265 18.1033 21.7533 17.8273Z" fill="white"/>
<path d="M29.2701 16.618L29.0892 16.7118L30.0941 18.7217L31.0321 18.2393L30.4559 17.0836L34.6163 14.9465L35.2092 16.0988L36.1371 15.6232L35.1087 13.6133L34.3249 14.0153L31.9801 9.44287L28.0039 11.4929L28.8078 13.2348C29.0055 13.6569 29.173 14.0521 29.317 14.4172C29.4471 14.7429 29.549 15.0791 29.6218 15.4222C29.6791 15.6701 29.6791 15.9279 29.6218 16.1759C29.599 16.2707 29.5556 16.3595 29.4949 16.4358C29.4341 16.5122 29.3574 16.5744 29.2701 16.618ZM29.3003 11.9016L31.424 10.8129L33.3334 14.5311L30.5832 15.9447C30.61 15.8566 30.6257 15.7654 30.6301 15.6734C30.6404 15.4097 30.6076 15.1461 30.533 14.8929C30.4453 14.5703 30.3402 14.2528 30.2181 13.9416C30.0841 13.6066 29.93 13.2482 29.7558 12.8831L29.3003 11.9016Z" fill="white"/>
<path d="M41.6642 11.6471L38.3547 12.5918L37.8991 10.9839L40.7297 10.1766L40.4751 9.27885L37.6412 10.0861L37.2091 8.57206L40.4014 7.66093L40.1401 6.73975L35.8591 7.95905L37.5273 13.8211L41.9255 12.5683L41.6642 11.6471Z" fill="white"/>
<path d="M48.0823 5.71478L45.1647 10.2905L44.8163 5.97606L43.6975 6.0665L44.1866 12.1429L45.2451 12.0559L48.1527 7.49015L48.501 11.7979L49.6199 11.7075L49.1308 5.62769L48.0823 5.71478Z" fill="white"/>
<path d="M45.1714 5.20554C45.5426 5.39047 45.9572 5.47043 46.3704 5.43678C46.7837 5.40313 47.1799 5.25714 47.5163 5.0146C47.642 4.89071 47.7376 4.7396 47.7957 4.57291C47.8538 4.40622 47.8728 4.22842 47.8512 4.05322L47.0707 4.11687C47.0803 4.21064 47.0688 4.30537 47.0369 4.39407C47.005 4.48277 46.9536 4.56319 46.8865 4.62938C46.7225 4.75701 46.5248 4.83389 46.3177 4.85055C46.1105 4.86722 45.9031 4.82294 45.7208 4.72317C45.6452 4.66719 45.583 4.59524 45.5384 4.51245C45.4938 4.42965 45.468 4.33805 45.4629 4.24416L44.6824 4.3078C44.6908 4.48466 44.7392 4.6573 44.8239 4.81278C44.9086 4.96826 45.0274 5.10254 45.1714 5.20554Z" fill="white"/>
<path d="M56.9993 10.7191C56.7625 10.9233 56.4867 11.0772 56.1886 11.1713C55.8984 11.2556 55.5941 11.2795 55.2943 11.2417C54.9963 11.2108 54.7073 11.122 54.4434 10.9804C54.1999 10.8513 53.9851 10.6739 53.8124 10.4591C53.6396 10.2443 53.5124 9.99654 53.4385 9.73096C53.3606 9.44527 53.3401 9.14698 53.3782 8.85332C53.4087 8.55866 53.5 8.27352 53.6462 8.01589C53.7808 7.77598 53.9618 7.56531 54.1788 7.39618C54.4046 7.22653 54.662 7.10354 54.9358 7.03441C55.2261 6.9631 55.5271 6.94607 55.8235 6.98417C56.1238 7.01707 56.4137 7.11295 56.6744 7.26554C56.9379 7.42526 57.1659 7.63731 57.3443 7.8886L58.1549 7.29234C57.9145 6.9266 57.5893 6.62437 57.207 6.41136C56.3962 5.98134 55.4564 5.86222 54.564 6.07638C54.1632 6.17821 53.7865 6.35806 53.4552 6.60564C53.1307 6.85064 52.8585 7.15816 52.6547 7.51008C52.2369 8.26985 52.1301 9.162 52.3565 9.99894C52.4738 10.3852 52.6674 10.7441 52.926 11.0541C53.186 11.3735 53.5071 11.6377 53.8706 11.8312C54.2646 12.0349 54.6927 12.1644 55.1335 12.2131C55.6007 12.2762 56.0758 12.2443 56.5303 12.1193C56.9521 12.0005 57.3392 11.7822 57.6592 11.4829L56.9993 10.7191Z" fill="white"/>
<path d="M65.2463 9.33907L65.5277 8.42124L60.6002 6.90381L60.3188 7.81829L62.2416 8.41119L60.7275 13.3219L61.7927 13.6502L63.3068 8.73947L65.2463 9.33907Z" fill="white"/>
<path d="M69.9024 16.7855C70.1418 16.7479 70.3683 16.6522 70.5622 16.5068C70.7561 16.3614 70.9114 16.1707 71.0145 15.9514C71.1331 15.7572 71.2003 15.5359 71.2096 15.3085C71.219 15.0811 71.1703 14.8551 71.0681 14.6517C70.9556 14.4373 70.8046 14.2454 70.6226 14.0856C70.765 14.1025 70.909 14.1025 71.0514 14.0856C71.2691 14.0407 71.474 13.9473 71.6507 13.8124C71.8275 13.6775 71.9715 13.5045 72.0723 13.3063C72.173 13.108 72.2278 12.8897 72.2325 12.6674C72.2373 12.4451 72.192 12.2246 72.0999 12.0222C71.8105 11.534 71.3777 11.1468 70.8604 10.9134L68.4453 9.64722L65.6147 15.047L68.174 16.3869C68.6917 16.7036 69.2983 16.8435 69.9024 16.7855ZM69.0047 10.9302L70.3446 11.6336C70.6262 11.7486 70.8617 11.9535 71.0145 12.2165C71.064 12.3287 71.0859 12.4511 71.0783 12.5735C71.0708 12.6959 71.0339 12.8147 70.971 12.9199C70.9207 13.0322 70.8437 13.1306 70.7469 13.2065C70.65 13.2824 70.536 13.3335 70.4149 13.3554C70.1209 13.3851 69.8253 13.3168 69.5741 13.1611L68.2342 12.4577L69.0047 10.9302ZM67.8222 13.1912L69.3564 13.9952C69.6467 14.1224 69.8894 14.3382 70.0498 14.6115C70.1041 14.7271 70.1289 14.8543 70.1219 14.9817C70.1149 15.1092 70.0763 15.2329 70.0096 15.3418C69.9579 15.4624 69.8774 15.5685 69.7752 15.6508C69.673 15.7331 69.5522 15.7892 69.4234 15.8141C69.1074 15.8356 68.7925 15.7584 68.5223 15.593L66.9948 14.7857L67.8222 13.1912Z" fill="white"/>
<path d="M72.9474 19.4119L78.2132 18.149L75.4731 21.4853L76.3407 22.1988L80.2096 17.4891L79.3957 16.8191L74.1165 18.0854L76.8666 14.7423L75.9957 14.0288L72.1267 18.7386L72.9474 19.4119Z" fill="white"/>
<path d="M81.1343 27.7191L81.8746 27.1094L79.6905 24.4497L80.9835 23.3912L82.8527 25.6657L83.5729 25.0728L81.7037 22.7983L82.923 21.8001L85.0267 24.3627L85.767 23.7564L82.9431 20.3162L78.2334 24.1851L81.1343 27.7191Z" fill="white"/>
<path d="M7.28232 42.9338C7.49522 43.2806 7.7754 43.5813 8.10636 43.8181C8.45829 44.0632 8.85582 44.2352 9.27542 44.3239C9.69415 44.4217 10.1284 44.4331 10.5517 44.3574C10.9524 44.2841 11.3342 44.1302 11.6738 43.9052C12.017 43.6737 12.3098 43.3752 12.5347 43.0276C13.021 42.2687 13.2206 41.3612 13.0975 40.4684C13.0353 40.0573 12.893 39.6624 12.6788 39.306C12.4701 38.9561 12.1905 38.6538 11.8581 38.4183C11.5077 38.1727 11.1111 38.0006 10.6924 37.9125C10.2768 37.8159 9.84584 37.8056 9.42616 37.8824C9.02454 37.9566 8.64253 38.1128 8.304 38.3413C7.95693 38.5728 7.6606 38.8726 7.43306 39.2223C6.94656 39.9787 6.74473 40.8833 6.8636 41.7748C6.92272 42.1856 7.06521 42.58 7.28232 42.9338ZM7.88863 40.666C7.9491 40.3795 8.06272 40.1068 8.2236 39.8621C8.37621 39.6318 8.57602 39.4365 8.80981 39.2893C9.04396 39.1446 9.30292 39.0447 9.57355 38.9945C9.99946 38.915 10.4394 38.9636 10.8377 39.1341C11.236 39.3047 11.5747 39.5895 11.8112 39.9525C11.959 40.1848 12.0582 40.4446 12.1026 40.7163C12.1465 41.0061 12.1351 41.3016 12.0691 41.5872C12.0095 41.8719 11.8958 42.1426 11.7341 42.3844C11.5814 42.6105 11.3842 42.8031 11.1546 42.9505C10.925 43.1011 10.6657 43.2005 10.3942 43.242C10.1025 43.2884 9.80449 43.2782 9.5166 43.2118C9.22889 43.1518 8.95504 43.0381 8.70931 42.8769C8.48413 42.7217 8.29176 42.5236 8.14321 42.294C7.99787 42.0633 7.89994 41.8059 7.85513 41.537C7.8083 41.2473 7.81969 40.9512 7.88863 40.666Z" fill="white"/>
<path d="M12.0122 51.777L12.0424 50.4538L10.0426 48.9733L12.1161 47.5865L12.1462 46.2901L9.12811 48.2631L6.05639 45.9819L6.0229 47.2883L8.20358 48.9297L5.94585 50.4572L5.91235 51.8004L9.14486 49.6566L12.0122 51.777Z" fill="white"/>
<path d="M8.26381 56.7414C8.32373 57.2171 8.48601 57.6742 8.73947 58.0813C8.95103 58.4157 9.25459 58.6821 9.61376 58.8483C9.98856 59.0081 10.4019 59.0547 10.8029 58.9823C11.2114 58.9312 11.5957 58.7611 11.9083 58.4933C12.2059 58.2272 12.4151 57.8766 12.5079 57.4884C12.62 57.0252 12.6348 56.5439 12.5515 56.0748L12.1663 53.5959L6.13672 54.5305L6.30756 55.6493L8.04607 55.378L8.26381 56.7414ZM11.4528 57.3376C11.3636 57.48 11.243 57.5999 11.1001 57.6882C10.9572 57.7765 10.7959 57.8308 10.6287 57.8468C10.4641 57.8821 10.2935 57.8791 10.1303 57.8378C9.96705 57.7966 9.81551 57.7183 9.68745 57.6089C9.40562 57.3218 9.23369 56.9448 9.20174 56.5437L9.00075 55.2373L11.3891 54.8655L11.5935 56.1753C11.6829 56.5673 11.6332 56.9782 11.4528 57.3376Z" fill="white"/>
<path d="M14.0287 62.0909L7.36938 61.5315L7.75126 62.6403L9.28209 62.7441L10.287 65.6182L9.15815 66.6566L9.55342 67.7821L14.4039 63.1427L14.0287 62.0909ZM10.2468 62.791L13.1443 62.9819L11.0106 64.9482L10.2468 62.791Z" fill="white"/>
<path d="M18.3498 70.9779L16.1959 72.2809L14.5646 69.5877L16.7152 68.2813L16.129 67.3132L10.9167 70.472L11.503 71.4401L13.7372 70.0868L15.3719 72.7834L13.1376 74.1367L13.7171 75.098L18.9327 71.9392L18.3498 70.9779Z" fill="white"/>
<path d="M23.4046 77.0945L21.569 78.8163L19.4117 76.5184L21.2474 74.7933L20.4736 73.9692L16.0251 78.1397L16.8023 78.9671L18.7049 77.1783L20.8622 79.4762L18.9562 81.265L19.7266 82.0857L24.1717 77.9152L23.4046 77.0945Z" fill="white"/>
<path d="M21.9644 84.1155L22.9123 84.7855L24.2221 83.9815L26.7143 85.7368L26.3793 87.2375L27.3574 87.9242L28.617 81.3553L27.7058 80.7122L21.9644 84.1155ZM26.9153 84.7855L25.0461 83.4657L27.5182 81.9449L26.9153 84.7855Z" fill="white"/>
<path d="M32.8274 84.1692C32.4276 84.1683 32.0362 84.2848 31.7019 84.5042C31.3521 84.7467 31.0799 85.0852 30.9181 85.4789C30.7403 85.8437 30.6683 86.2511 30.7104 86.6547C30.7559 87.036 30.9159 87.3946 31.1693 87.6831L31.3066 87.8204L29.3403 88.9995L30.4257 89.4919L32.1675 88.41L32.2714 88.4636L33.6414 89.0833L32.9413 90.6309L33.9462 91.0931L36.4652 85.5392L34.1539 84.4941C33.7407 84.2904 33.288 84.1795 32.8274 84.1692ZM31.9096 86.9193C31.8464 86.7574 31.8191 86.5837 31.8295 86.4103C31.8399 86.2368 31.8878 86.0676 31.9699 85.9144C32.0308 85.749 32.128 85.5993 32.2544 85.4764C32.3807 85.3535 32.5331 85.2605 32.7001 85.2043C33.0737 85.1209 33.4648 85.1744 33.8022 85.355L35.0617 85.9278L34.0233 88.219L32.7236 87.6295C32.3734 87.5036 32.0838 87.2499 31.9129 86.9193H31.9096Z" fill="white"/>
<path d="M47.3017 88.7113C47.0422 88.3884 46.7196 88.1217 46.3538 87.9274C45.9591 87.7202 45.5301 87.5862 45.0876 87.5322C44.6409 87.469 44.1863 87.4906 43.7477 87.5958C43.3433 87.6941 42.9621 87.8705 42.6255 88.115C42.2977 88.3555 42.022 88.6597 41.8149 89.0094C41.6023 89.382 41.4657 89.793 41.4129 90.2187C41.354 90.6409 41.3825 91.0708 41.4966 91.4815C41.6057 91.8739 41.7938 92.2398 42.0493 92.5568C42.3122 92.883 42.638 93.1529 43.0074 93.3507C43.8052 93.7642 44.7234 93.8828 45.6001 93.6857C46.0046 93.5909 46.3854 93.4142 46.7189 93.1664C47.0458 92.9244 47.3194 92.6176 47.5228 92.2654C47.9512 91.5124 48.0713 90.6228 47.8578 89.7832C47.7489 89.3911 47.5596 89.0261 47.3017 88.7113ZM46.8026 90.9154C46.7684 91.2087 46.6762 91.4922 46.5313 91.7495C46.3965 91.9883 46.2154 92.1978 45.9987 92.3659C45.783 92.5323 45.5357 92.6531 45.2718 92.7209C44.9904 92.7909 44.6983 92.8068 44.4109 92.7678C44.1197 92.7313 43.8379 92.6404 43.5802 92.4998C43.3382 92.3682 43.127 92.1866 42.9605 91.9672C42.792 91.7481 42.669 91.4976 42.5987 91.2303C42.4475 90.6585 42.5256 90.0503 42.8164 89.5353C42.9555 89.2975 43.1385 89.0883 43.3557 88.919C43.5726 88.7497 43.8225 88.6276 44.0893 88.5605C44.3744 88.4917 44.6698 88.4769 44.9603 88.517C45.2484 88.5511 45.5272 88.641 45.781 88.7816C46.0199 88.9147 46.2305 89.0934 46.4007 89.3075C46.5679 89.5252 46.6887 89.7749 46.7557 90.0411C46.8274 90.3268 46.8433 90.6237 46.8026 90.9154Z" fill="white"/>
<path d="M55.2709 88.6645C55.0295 88.3538 54.7022 88.1209 54.3296 87.9945C53.8781 87.8437 53.3998 87.79 52.9261 87.8371L50.4238 88.0113L50.8459 94.0911L51.9748 94.014L51.8542 92.2588L53.2276 92.1616C53.7074 92.1367 54.1761 92.0076 54.601 91.7831C54.9608 91.6018 55.2562 91.3144 55.4474 90.9597C55.6385 90.6051 55.716 90.2002 55.6695 89.8C55.6495 89.3909 55.511 88.9964 55.2709 88.6645ZM54.209 90.805C53.8997 91.0624 53.5094 91.2024 53.107 91.2002L51.7872 91.294L51.6197 88.8755L52.9395 88.7851C53.3374 88.7276 53.7429 88.8118 54.0851 89.0229C54.2134 89.1296 54.3188 89.2613 54.3949 89.4099C54.471 89.5585 54.5162 89.7209 54.5278 89.8874C54.5394 90.054 54.5171 90.2211 54.4623 90.3788C54.4075 90.5365 54.3214 90.6815 54.209 90.805Z" fill="white"/>
<path d="M61.4746 86.2527L57.4482 87.2442L58.9054 93.1632L59.9974 92.8952L58.7613 87.9075L61.6957 87.1873L61.4746 86.2527Z" fill="white"/>
<path d="M63.9803 85.2779L63.7793 91.9606L64.8479 91.5151L64.868 89.9809L67.6851 88.8119L68.7838 89.8871L69.8859 89.4282L65.0221 84.8491L63.9803 85.2779ZM64.8814 89.0129L64.9182 86.112L66.9951 88.1386L64.8814 89.0129Z" fill="white"/>
<path d="M72.6393 80.4844L74.0563 82.5646L71.4502 84.34L70.0332 82.2598L69.0986 82.8962L72.5321 87.9343L73.4667 87.2978L71.9962 85.1372L74.5989 83.3619L76.0728 85.5224L77.0007 84.8893L73.5672 79.8513L72.6393 80.4844Z" fill="white"/>
<path d="M78.5482 75.0377L79.409 80.3973L76.2837 77.3993L75.5066 78.2133L79.9048 82.4306L80.6418 81.6635L79.7842 76.3173L82.9028 79.3053L83.68 78.4947L79.2784 74.2773L78.5482 75.0377Z" fill="white"/>
<path d="M86.8756 70.9241C86.6301 70.7593 86.3405 70.6729 86.0448 70.6763C85.7418 70.6874 85.4481 70.7837 85.1974 70.9543C85.1341 70.996 85.0737 71.0419 85.0165 71.0916V71.0347C85.0588 70.7615 85.024 70.4819 84.916 70.2274C84.8042 69.9788 84.6212 69.7689 84.3901 69.6244C84.1385 69.4538 83.8351 69.3768 83.5325 69.4067C83.2148 69.4485 82.911 69.5631 82.6449 69.7417C82.3363 69.943 82.0644 70.1957 81.8409 70.4887C81.5909 70.813 81.3868 71.1704 81.2346 71.5506C81.0713 71.9509 80.974 72.3752 80.9465 72.8067L81.8945 73.0043C81.9046 72.706 81.9565 72.4106 82.0486 72.1267C82.1331 71.8614 82.2513 71.6081 82.4003 71.373C82.5279 71.1691 82.6848 70.9852 82.8659 70.827C83.012 70.6948 83.1897 70.6025 83.3818 70.559C83.4667 70.5407 83.5544 70.5399 83.6397 70.5566C83.7249 70.5733 83.8058 70.6072 83.8776 70.6562C83.975 70.7123 84.0568 70.792 84.1153 70.888C84.1739 70.984 84.2073 71.0932 84.2125 71.2055C84.2056 71.4855 84.1133 71.7567 83.9479 71.9827L83.2244 73.1048L83.9781 73.5905L84.7452 72.4047C84.9008 72.1227 85.1331 71.8905 85.4151 71.7348C85.5241 71.6801 85.646 71.6561 85.7676 71.6656C85.8892 71.675 86.0059 71.7175 86.1051 71.7884C86.1919 71.8438 86.2663 71.9163 86.3239 72.0016C86.3815 72.0869 86.4211 72.183 86.4401 72.2841C86.4826 72.5174 86.4688 72.7574 86.3999 72.9842C86.3216 73.2541 86.2006 73.5097 86.0415 73.7413C85.8646 74.0004 85.6527 74.2338 85.4117 74.4347C85.167 74.6427 84.8912 74.8111 84.5944 74.9338L85.1002 75.6942C85.451 75.5361 85.778 75.3297 86.0717 75.0812C86.3623 74.8375 86.6202 74.5571 86.8387 74.2471C87.0459 73.9579 87.2137 73.6425 87.3379 73.3092C87.456 73.0084 87.525 72.6906 87.5422 72.3679C87.5612 72.0824 87.5118 71.7964 87.3981 71.5338C87.2862 71.2846 87.1048 71.0729 86.8756 70.9241Z" fill="white"/>
<path d="M84.9429 64.8042L89.5555 69.6446L89.9943 68.5693L88.9157 67.4773L90.0646 64.6535L91.5988 64.6267L92.0477 63.5212L85.3482 63.7725L84.9429 64.8042ZM88.2357 66.7906L86.1957 64.7238L89.0966 64.6702L88.2357 66.7906Z" fill="white"/>
<path d="M95.2534 54.7046L92.9991 54.2993L92.8383 55.197L87.7801 54.2859L87.5825 55.3913L92.6373 56.3058L92.0946 59.3206L87.0365 58.4094L86.8389 59.5148L92.8383 60.5968L93.7561 55.4985L95.0692 55.733L95.2534 54.7046Z" fill="white"/>
<path d="M87.8638 47.1175L92.2922 50.2562L87.9643 50.3902L88.0012 51.5157L94.0943 51.3248L94.0608 50.2629L89.6425 47.1309L93.9604 46.9969L93.9235 45.8748L87.8303 46.0657L87.8638 47.1175Z" fill="white"/>
<path d="M87.5388 42.7192C87.7802 43.0373 88.1099 43.2773 88.4868 43.4093C88.892 43.5378 89.3254 43.5482 89.7363 43.4394C90.1339 43.356 90.5004 43.1634 90.7948 42.8834C91.0706 42.6105 91.2565 42.2599 91.3274 41.8784C91.3274 41.8148 91.3441 41.7511 91.3542 41.6841L93.488 42.5216L93.2133 41.3626L91.2939 40.6457C91.2939 40.6055 91.2939 40.5687 91.2738 40.5285L90.9388 39.0646L92.5902 38.6727L92.3357 37.5874L86.3999 38.9876L86.9828 41.453C87.0737 41.9105 87.2635 42.3427 87.5388 42.7192ZM90.2789 41.7679C90.1885 41.9134 90.0683 42.0381 89.9263 42.134C89.7843 42.2298 89.6236 42.2945 89.4549 42.3239C89.2871 42.3756 89.11 42.3895 88.9363 42.3646C88.7625 42.3396 88.5964 42.2766 88.4499 42.1799C88.1534 41.9315 87.957 41.584 87.8972 41.2018L87.579 39.8619L90.0277 39.2857L90.3627 40.6759C90.4754 41.0372 90.4454 41.428 90.2789 41.7679Z" fill="white"/>
<path d="M50.0017 100C22.4433 100 0 77.5701 0 50.0017C0 22.4333 22.4433 0 50.0017 0C77.56 0 100 22.4433 100 50.0017C100 77.56 77.5701 100 50.0017 100ZM50.0017 0.435467C22.6711 0.435467 0.425418 22.6711 0.425418 50.0117C0.425418 77.3524 22.661 99.588 50.0017 99.588C77.3423 99.588 99.5779 77.3557 99.5779 50.0117C99.5779 22.6677 77.3323 0.435467 50.0017 0.435467Z" fill="white"/>
<path d="M50.0017 83.794C43.3183 83.794 36.7849 81.8121 31.2278 78.099C25.6707 74.3858 21.3394 69.1082 18.7818 62.9335C16.2241 56.7587 15.5549 49.9643 16.8588 43.4092C18.1627 36.8541 21.3811 30.8329 26.107 26.107C30.8329 21.3811 36.8541 18.1627 43.4092 16.8588C49.9643 15.5549 56.7587 16.2241 62.9335 18.7818C69.1082 21.3394 74.3858 25.6707 78.099 31.2278C81.8121 36.7849 83.794 43.3183 83.794 50.0017C83.7833 58.9607 80.2197 67.5497 73.8847 73.8847C67.5497 80.2197 58.9607 83.7833 50.0017 83.794ZM50.0017 16.645C43.4042 16.6443 36.9547 18.6001 31.4688 22.265C25.9829 25.9298 21.7069 31.1392 19.1817 37.2343C16.6565 43.3294 15.9954 50.0365 17.2821 56.5073C18.5688 62.9781 21.7455 68.922 26.4104 73.5874C31.0753 78.2527 37.0189 81.43 43.4896 82.7173C49.9602 84.0047 56.6674 83.3443 62.7627 80.8197C68.8581 78.2951 74.0679 74.0197 77.7333 68.5341C81.3987 63.0486 83.3552 56.5992 83.3552 50.0017C83.3454 41.1585 79.8284 32.6803 73.5756 26.4269C67.3228 20.1735 58.8449 16.6556 50.0017 16.645Z" fill="white"/>
</svg>
